%TF.GenerationSoftware,Altium Limited,Altium Designer,24.1.2 (44)*%
G04 Layer_Color=65535*
%FSLAX45Y45*%
%MOMM*%
%TF.SameCoordinates,E01E6690-4C2E-4FB1-AE08-5A5A66155338*%
%TF.FilePolarity,Positive*%
%TF.FileFunction,Legend,Top*%
%TF.Part,Single*%
G01*
G75*
%TA.AperFunction,NonConductor*%
%ADD49C,0.25000*%
%ADD50C,0.10000*%
%ADD51C,0.60000*%
%ADD52C,0.20000*%
%ADD53C,0.25400*%
D49*
X7054411Y6085699D02*
G03*
X7054411Y6085699I-12500J0D01*
G01*
X9016800Y12372500D02*
G03*
X9016800Y12372500I-12500J0D01*
G01*
X8013500D02*
G03*
X8013500Y12372500I-12500J0D01*
G01*
X13804700D02*
G03*
X13804700Y12372500I-12500J0D01*
G01*
X12979201Y12369700D02*
G03*
X12979201Y12369700I-12500J0D01*
G01*
X13372900Y12375300D02*
G03*
X13372900Y12375300I-12500J0D01*
G01*
X7607100Y12359800D02*
G03*
X7607100Y12359800I-12500J0D01*
G01*
X12182700Y4349600D02*
G03*
X12182700Y4349600I-12500J0D01*
G01*
X7904300Y8104700D02*
G03*
X7904300Y8104700I-12500J0D01*
G01*
X11582200Y12375300D02*
G03*
X11582200Y12375300I-12500J0D01*
G01*
X11175800D02*
G03*
X11175800Y12375300I-12500J0D01*
G01*
X10303400Y4370100D02*
G03*
X10303400Y4370100I-12500J0D01*
G01*
X7626600Y10644500D02*
G03*
X7626600Y10644500I-12500J0D01*
G01*
X12744953Y4659400D02*
G03*
X12744953Y4659400I-12500J0D01*
G01*
X14125200Y10947400D02*
G03*
X14125200Y10947400I-12500J0D01*
G01*
X6848100D02*
G03*
X6848100Y10947400I-12500J0D01*
G01*
D50*
X12292700Y4545000D02*
G03*
X12292700Y4545000I-5000J0D01*
G01*
X9004203Y9019098D02*
X9212702Y9227602D01*
X11037199D01*
Y7194606D02*
Y9227602D01*
X9004203Y7194606D02*
X11037199D01*
X9004203D02*
Y9019098D01*
X5349601Y12240702D02*
X6029599D01*
Y11660698D02*
Y12240702D01*
X5349601Y11660698D02*
X6029599D01*
X5349601D02*
Y12240702D01*
X10616799Y10137501D02*
Y10690499D01*
X9296801Y10137501D02*
Y10690499D01*
Y10137501D02*
X10616799D01*
X9296801Y10690499D02*
X10616799D01*
D51*
X14135699Y10731400D02*
G03*
X14135699Y10731400I-30000J0D01*
G01*
X6858600D02*
G03*
X6858600Y10731400I-30000J0D01*
G01*
D52*
X14205701Y10629900D02*
G03*
X14205701Y10502900I0J-63500D01*
G01*
X6928600Y10629900D02*
G03*
X6928600Y10502900I0J-63500D01*
G01*
X7109912Y5978200D02*
X7117913D01*
X7566914D02*
X7574915D01*
Y6285200D02*
Y6343198D01*
Y6135197D02*
Y6186200D01*
Y5978200D02*
Y6036198D01*
X7109912Y6343198D02*
X7117913D01*
X7566914D02*
X7574915D01*
X7109912Y6285200D02*
Y6343198D01*
Y6135197D02*
Y6186200D01*
Y5978200D02*
Y6036198D01*
X8919301Y12002501D02*
Y12127499D01*
X9089299Y12002501D02*
Y12127499D01*
X7916001Y12002501D02*
Y12127499D01*
X8085999Y12002501D02*
Y12127499D01*
X7900391Y11319190D02*
Y11490010D01*
X8076209Y11319190D02*
Y11490010D01*
X8916391Y11344590D02*
Y11515410D01*
X9092209Y11344590D02*
Y11515410D01*
X11075391Y11340887D02*
Y11511712D01*
X11251209Y11340887D02*
Y11511712D01*
X11494491Y11344590D02*
Y11515410D01*
X11670309Y11344590D02*
Y11515410D01*
X13285191Y11306490D02*
Y11477310D01*
X13461009Y11306490D02*
Y11477310D01*
X13691591Y11293790D02*
Y11464610D01*
X13867409Y11293790D02*
Y11464610D01*
X13707201Y12002501D02*
Y12127499D01*
X13877199Y12002501D02*
Y12127499D01*
X12881702Y11999702D02*
Y12124700D01*
X13051698Y11999702D02*
Y12124700D01*
X13275401Y12005300D02*
Y12130298D01*
X13445399Y12005300D02*
Y12130298D01*
X12866090Y11306490D02*
Y11477310D01*
X13041908Y11306490D02*
Y11477310D01*
X7676200Y9750501D02*
X7716200D01*
X7676200Y9680499D02*
X7716200D01*
X7407199Y9949500D02*
Y9989500D01*
X7477201Y9949500D02*
Y9989500D01*
X7407199Y10227701D02*
Y10267701D01*
X7477201Y10227701D02*
Y10267701D01*
Y10508300D02*
Y10548300D01*
X7407199Y10508300D02*
Y10548300D01*
X8645601Y10646801D02*
Y10686801D01*
X8575599Y10646801D02*
Y10686801D01*
X8524799Y10076500D02*
Y10116500D01*
X8594801Y10076500D02*
Y10116500D01*
X10990900Y3800399D02*
X11030900D01*
X10990900Y3870401D02*
X11030900D01*
X7519391Y11310188D02*
Y11481013D01*
X7695209Y11310188D02*
Y11481013D01*
X7509601Y11989801D02*
Y12114799D01*
X7679599Y11989801D02*
Y12114799D01*
X12554199Y4010101D02*
X12594199D01*
X12554199Y3940099D02*
X12594199D01*
X12449099Y5429499D02*
Y5469499D01*
X12519101Y5429499D02*
Y5469499D01*
X12017299Y5415600D02*
Y5455600D01*
X12087301Y5415600D02*
Y5455600D01*
X12192701Y4869002D02*
X12247702D01*
X11907698D02*
X11962699D01*
X11907698Y4528998D02*
X11962699D01*
X12192701D02*
X12247702D01*
Y4545000D01*
Y4853000D02*
Y4869002D01*
X11907698Y4853000D02*
Y4869002D01*
Y4528998D02*
Y4545000D01*
X12551801Y4422699D02*
X12591801D01*
X12551801Y4492701D02*
X12591801D01*
X12540300Y4181399D02*
X12580300D01*
X12540300Y4251401D02*
X12580300D01*
X11925198Y4059601D02*
Y4144599D01*
X12230202Y4059601D02*
Y4144599D01*
X8146801Y7704699D02*
Y8034701D01*
X7796799Y7704699D02*
Y8034701D01*
X7669601Y7834000D02*
Y7914000D01*
X7519599Y7834000D02*
Y7914000D01*
X8243499Y7838699D02*
Y7918699D01*
X8393501Y7838699D02*
Y7918699D01*
X11484701Y12005300D02*
Y12130298D01*
X11654699Y12005300D02*
Y12130298D01*
X11078301Y12005300D02*
Y12130298D01*
X11248299Y12005300D02*
Y12130298D01*
X11196899Y4520098D02*
Y4700102D01*
X10316901Y4520098D02*
Y4700102D01*
X11196899D01*
X10316901Y4520098D02*
X11196899D01*
X9982601Y3177901D02*
X12572599D01*
Y3730899D01*
X9982601Y3177901D02*
Y3730899D01*
X12572599D01*
X6429299Y11942201D02*
Y11982201D01*
X6499301Y11942201D02*
Y11982201D01*
X8134299Y4968301D02*
Y5041798D01*
X7461301D02*
X8134299D01*
X7461301Y4968301D02*
Y5041798D01*
X6958599Y11403802D02*
Y11453800D01*
X6896100D02*
X6958599D01*
Y11253800D02*
Y11303803D01*
X6896100Y11253800D02*
X6958599D01*
X9137599Y4993701D02*
Y5067198D01*
X8464601D02*
X9137599D01*
X8464601Y4993701D02*
Y5067198D01*
X7054799Y4955601D02*
Y5029098D01*
X6381801D02*
X7054799D01*
X6381801Y4955601D02*
Y5029098D01*
X7429500Y3454400D02*
Y3708400D01*
X6413500Y3454400D02*
X7429500D01*
X6413500Y3708400D02*
X7429500D01*
X6413500Y3454400D02*
Y3708400D01*
X5962599Y4934102D02*
Y5007600D01*
X5289601D02*
X5962599D01*
X5289601Y4934102D02*
Y5007600D01*
X8147299Y10823499D02*
X8187299D01*
X8147299Y10893501D02*
X8187299D01*
X7861600Y9892000D02*
X8216600D01*
X7861600Y10682000D02*
X8216600D01*
X7123902Y7201301D02*
Y9283299D01*
X6769898D02*
X7123902D01*
X6769898Y7201301D02*
X7123902D01*
X6769898D02*
Y9283299D01*
X11572733Y4483369D02*
Y4823369D01*
X11337900Y4488698D02*
Y4828703D01*
X12167799Y5467101D02*
Y5547101D01*
X12317801Y5467101D02*
Y5547101D01*
X12091203Y7290201D02*
Y9372199D01*
Y7290201D02*
X12445202D01*
X12091203Y9372199D02*
X12445202D01*
Y7290201D02*
Y9372199D01*
X12466848Y4624400D02*
X12666848D01*
X12466848Y4824400D02*
X12666848D01*
X12235698Y10301402D02*
Y10831398D01*
X14205702Y10301402D02*
Y10502900D01*
Y10629900D02*
Y10831398D01*
X12235698Y10301402D02*
X14205702D01*
X12235698Y10831398D02*
X14205702D01*
X4958598Y10301402D02*
Y10831398D01*
X6928602Y10301402D02*
Y10502900D01*
Y10629900D02*
Y10831398D01*
X4958598Y10301402D02*
X6928602D01*
X4958598Y10831398D02*
X6928602D01*
X8055600Y8590798D02*
Y8655802D01*
X7895600Y8590798D02*
Y8655802D01*
X7695001Y8604001D02*
Y8684001D01*
X7544999Y8604001D02*
Y8684001D01*
X8205399Y8583300D02*
Y8663300D01*
X8355401Y8583300D02*
Y8663300D01*
D53*
X7043420Y6603951D02*
Y6476992D01*
X7068812Y6451600D01*
X7119595D01*
X7144987Y6476992D01*
Y6603951D01*
X7297338D02*
X7246554Y6578559D01*
X7195771Y6527775D01*
Y6476992D01*
X7221163Y6451600D01*
X7271946D01*
X7297338Y6476992D01*
Y6502383D01*
X7271946Y6527775D01*
X7195771D01*
X8877341Y12572975D02*
Y12420625D01*
X8953517D01*
X8978908Y12446017D01*
Y12547583D01*
X8953517Y12572975D01*
X8877341D01*
X9029692Y12547583D02*
X9055084Y12572975D01*
X9105867D01*
X9131259Y12547583D01*
Y12522192D01*
X9105867Y12496800D01*
X9080475D01*
X9105867D01*
X9131259Y12471408D01*
Y12446017D01*
X9105867Y12420625D01*
X9055084D01*
X9029692Y12446017D01*
X7874041Y12585675D02*
Y12433325D01*
X7950217D01*
X7975608Y12458717D01*
Y12560283D01*
X7950217Y12585675D01*
X7874041D01*
X8026392Y12560283D02*
X8051784Y12585675D01*
X8102567D01*
X8127959Y12560283D01*
Y12534892D01*
X8102567Y12509500D01*
X8127959Y12484108D01*
Y12458717D01*
X8102567Y12433325D01*
X8051784D01*
X8026392Y12458717D01*
Y12484108D01*
X8051784Y12509500D01*
X8026392Y12534892D01*
Y12560283D01*
X8051784Y12509500D02*
X8102567D01*
X7874054Y11569725D02*
Y11722075D01*
X7950229D01*
X7975621Y11696683D01*
Y11645900D01*
X7950229Y11620508D01*
X7874054D01*
X7924837D02*
X7975621Y11569725D01*
X8026404D02*
X8077188D01*
X8051796D01*
Y11722075D01*
X8026404Y11696683D01*
X8153363Y11569725D02*
X8204147D01*
X8178755D01*
Y11722075D01*
X8153363Y11696683D01*
X8877341Y11582425D02*
Y11734775D01*
X8953517D01*
X8978908Y11709383D01*
Y11658600D01*
X8953517Y11633208D01*
X8877341D01*
X8928125D02*
X8978908Y11582425D01*
X9105867D02*
Y11734775D01*
X9029692Y11658600D01*
X9131259D01*
X11049041Y11607825D02*
Y11760175D01*
X11125217D01*
X11150608Y11734783D01*
Y11684000D01*
X11125217Y11658608D01*
X11049041D01*
X11099825D02*
X11150608Y11607825D01*
X11302959Y11760175D02*
X11252175Y11734783D01*
X11201392Y11684000D01*
Y11633217D01*
X11226784Y11607825D01*
X11277567D01*
X11302959Y11633217D01*
Y11658608D01*
X11277567Y11684000D01*
X11201392D01*
X11455441Y11598825D02*
Y11751175D01*
X11531617D01*
X11557008Y11725784D01*
Y11675000D01*
X11531617Y11649608D01*
X11455441D01*
X11506225D02*
X11557008Y11598825D01*
X11607792Y11725784D02*
X11633184Y11751175D01*
X11683967D01*
X11709359Y11725784D01*
Y11700392D01*
X11683967Y11675000D01*
X11658575D01*
X11683967D01*
X11709359Y11649608D01*
Y11624217D01*
X11683967Y11598825D01*
X11633184D01*
X11607792Y11624217D01*
X13271541Y11582425D02*
Y11734775D01*
X13347717D01*
X13373108Y11709383D01*
Y11658600D01*
X13347717Y11633208D01*
X13271541D01*
X13322325D02*
X13373108Y11582425D01*
X13525459Y11734775D02*
X13423892D01*
Y11658600D01*
X13474675Y11683992D01*
X13500067D01*
X13525459Y11658600D01*
Y11607817D01*
X13500067Y11582425D01*
X13449284D01*
X13423892Y11607817D01*
X13690640Y11557025D02*
Y11709375D01*
X13766817D01*
X13792207Y11683983D01*
Y11633200D01*
X13766817Y11607808D01*
X13690640D01*
X13741425D02*
X13792207Y11557025D01*
X13944559D02*
X13842992D01*
X13944559Y11658592D01*
Y11683983D01*
X13919167Y11709375D01*
X13868384D01*
X13842992Y11683983D01*
X13703333Y12585675D02*
Y12433325D01*
X13779507D01*
X13804900Y12458717D01*
Y12560283D01*
X13779507Y12585675D01*
X13703333D01*
X13855684Y12433325D02*
X13906467D01*
X13881076D01*
Y12585675D01*
X13855684Y12560283D01*
X12852441Y12598375D02*
Y12446025D01*
X12928616D01*
X12954008Y12471417D01*
Y12572983D01*
X12928616Y12598375D01*
X12852441D01*
X13106358D02*
X13055576Y12572983D01*
X13004791Y12522200D01*
Y12471417D01*
X13030183Y12446025D01*
X13080968D01*
X13106358Y12471417D01*
Y12496808D01*
X13080968Y12522200D01*
X13004791D01*
X13271541Y12598375D02*
Y12446025D01*
X13347717D01*
X13373108Y12471417D01*
Y12572983D01*
X13347717Y12598375D01*
X13271541D01*
X13500067Y12446025D02*
Y12598375D01*
X13423892Y12522200D01*
X13525459D01*
X12839742Y11582425D02*
Y11734775D01*
X12915916D01*
X12941309Y11709383D01*
Y11658600D01*
X12915916Y11633208D01*
X12839742D01*
X12890524D02*
X12941309Y11582425D01*
X12992091Y11734775D02*
X13093658D01*
Y11709383D01*
X12992091Y11607817D01*
Y11582425D01*
X8623354Y9486875D02*
X8674137D01*
X8648745D01*
Y9334525D01*
X8623354D01*
X8674137D01*
X8851880Y9461483D02*
X8826488Y9486875D01*
X8775704D01*
X8750312Y9461483D01*
Y9359917D01*
X8775704Y9334525D01*
X8826488D01*
X8851880Y9359917D01*
X8902663Y9334525D02*
X8953447D01*
X8928055D01*
Y9486875D01*
X8902663Y9461483D01*
X7493062Y9436125D02*
Y9588475D01*
X7569237D01*
X7594629Y9563083D01*
Y9512300D01*
X7569237Y9486908D01*
X7493062D01*
X7543845D02*
X7594629Y9436125D01*
X7645412D02*
X7696196D01*
X7670804D01*
Y9588475D01*
X7645412Y9563083D01*
X7772371D02*
X7797763Y9588475D01*
X7848547D01*
X7873939Y9563083D01*
Y9537692D01*
X7848547Y9512300D01*
X7873939Y9486908D01*
Y9461517D01*
X7848547Y9436125D01*
X7797763D01*
X7772371Y9461517D01*
Y9486908D01*
X7797763Y9512300D01*
X7772371Y9537692D01*
Y9563083D01*
X7797763Y9512300D02*
X7848547D01*
X7327875Y9702862D02*
X7175525D01*
Y9779037D01*
X7200917Y9804429D01*
X7251700D01*
X7277092Y9779037D01*
Y9702862D01*
Y9753645D02*
X7327875Y9804429D01*
Y9855212D02*
Y9905996D01*
Y9880604D01*
X7175525D01*
X7200917Y9855212D01*
X7175525Y9982171D02*
Y10083739D01*
X7200917D01*
X7302483Y9982171D01*
X7327875D01*
X7340575Y10170333D02*
X7188225D01*
Y10246508D01*
X7213617Y10271900D01*
X7264400D01*
X7289792Y10246508D01*
Y10170333D01*
Y10221116D02*
X7340575Y10271900D01*
Y10322684D02*
Y10373467D01*
Y10348076D01*
X7188225D01*
X7213617Y10322684D01*
X7353275Y10528361D02*
X7200924D01*
Y10604537D01*
X7226316Y10629929D01*
X7277100D01*
X7302492Y10604537D01*
Y10528361D01*
Y10579145D02*
X7353275Y10629929D01*
Y10680712D02*
Y10731496D01*
Y10706104D01*
X7200924D01*
X7226316Y10680712D01*
X7200924Y10909238D02*
X7226316Y10858455D01*
X7277100Y10807671D01*
X7327883D01*
X7353275Y10833063D01*
Y10883846D01*
X7327883Y10909238D01*
X7302492D01*
X7277100Y10883846D01*
Y10807671D01*
X8915375Y10514462D02*
X8763024D01*
Y10590637D01*
X8788416Y10616029D01*
X8839199D01*
X8864591Y10590637D01*
Y10514462D01*
Y10565245D02*
X8915375Y10616029D01*
Y10666812D02*
Y10717596D01*
Y10692204D01*
X8763024D01*
X8788416Y10666812D01*
Y10793771D02*
X8763024Y10819163D01*
Y10869947D01*
X8788416Y10895338D01*
X8813808D01*
X8839199Y10869947D01*
Y10844555D01*
Y10869947D01*
X8864591Y10895338D01*
X8889983D01*
X8915375Y10869947D01*
Y10819163D01*
X8889983Y10793771D01*
X8851875Y9931462D02*
X8699525D01*
Y10007637D01*
X8724917Y10033029D01*
X8775700D01*
X8801092Y10007637D01*
Y9931462D01*
Y9982245D02*
X8851875Y10033029D01*
Y10083812D02*
Y10134596D01*
Y10109204D01*
X8699525D01*
X8724917Y10083812D01*
X8851875Y10286947D02*
X8699525D01*
X8775700Y10210771D01*
Y10312339D01*
X10820466Y3962425D02*
Y4114775D01*
X10896641D01*
X10922033Y4089383D01*
Y4038600D01*
X10896641Y4013208D01*
X10820466D01*
X10871249D02*
X10922033Y3962425D01*
X11074384D02*
X10972817D01*
X11074384Y4063992D01*
Y4089383D01*
X11048992Y4114775D01*
X10998208D01*
X10972817Y4089383D01*
X11226734Y3962425D02*
X11125167D01*
X11226734Y4063992D01*
Y4089383D01*
X11201343Y4114775D01*
X11150559D01*
X11125167Y4089383D01*
X7404162Y11586125D02*
Y11738475D01*
X7480337D01*
X7505729Y11713084D01*
Y11662300D01*
X7480337Y11636908D01*
X7404162D01*
X7454945D02*
X7505729Y11586125D01*
X7556512D02*
X7607296D01*
X7581904D01*
Y11738475D01*
X7556512Y11713084D01*
X7785039Y11586125D02*
X7683471D01*
X7785039Y11687692D01*
Y11713084D01*
X7759647Y11738475D01*
X7708863D01*
X7683471Y11713084D01*
X7480341Y12563075D02*
Y12410725D01*
X7556517D01*
X7581908Y12436117D01*
Y12537684D01*
X7556517Y12563075D01*
X7480341D01*
X7632692Y12436117D02*
X7658084Y12410725D01*
X7708867D01*
X7734259Y12436117D01*
Y12537684D01*
X7708867Y12563075D01*
X7658084D01*
X7632692Y12537684D01*
Y12512292D01*
X7658084Y12486900D01*
X7734259D01*
X12752066Y3924324D02*
Y4076675D01*
X12828241D01*
X12853633Y4051283D01*
Y4000500D01*
X12828241Y3975108D01*
X12752066D01*
X12802849D02*
X12853633Y3924324D01*
X13005984D02*
X12904416D01*
X13005984Y4025892D01*
Y4051283D01*
X12980592Y4076675D01*
X12929808D01*
X12904416Y4051283D01*
X13056767D02*
X13082159Y4076675D01*
X13132942D01*
X13158334Y4051283D01*
Y4025892D01*
X13132942Y4000500D01*
X13107552D01*
X13132942D01*
X13158334Y3975108D01*
Y3949716D01*
X13132942Y3924324D01*
X13082159D01*
X13056767Y3949716D01*
X12750775Y5257866D02*
X12598425D01*
Y5334041D01*
X12623817Y5359433D01*
X12674600D01*
X12699992Y5334041D01*
Y5257866D01*
Y5308649D02*
X12750775Y5359433D01*
Y5511784D02*
Y5410217D01*
X12649208Y5511784D01*
X12623817D01*
X12598425Y5486392D01*
Y5435608D01*
X12623817Y5410217D01*
X12750775Y5638743D02*
X12598425D01*
X12674600Y5562567D01*
Y5664134D01*
X11925275Y5245166D02*
X11772924D01*
Y5321341D01*
X11798316Y5346733D01*
X11849100D01*
X11874492Y5321341D01*
Y5245166D01*
Y5295949D02*
X11925275Y5346733D01*
Y5499083D02*
Y5397516D01*
X11823708Y5499083D01*
X11798316D01*
X11772924Y5473692D01*
Y5422908D01*
X11798316Y5397516D01*
X11772924Y5651434D02*
Y5549867D01*
X11849100D01*
X11823708Y5600650D01*
Y5626042D01*
X11849100Y5651434D01*
X11899883D01*
X11925275Y5626042D01*
Y5575259D01*
X11899883Y5549867D01*
X11722141Y5130775D02*
Y5003817D01*
X11747533Y4978425D01*
X11798317D01*
X11823708Y5003817D01*
Y5130775D01*
X11874492D02*
X11976059D01*
Y5105383D01*
X11874492Y5003817D01*
Y4978425D01*
X12750866Y4394225D02*
Y4546575D01*
X12827042D01*
X12852432Y4521183D01*
Y4470400D01*
X12827042Y4445008D01*
X12750866D01*
X12801649D02*
X12852432Y4394225D01*
X13004784D02*
X12903217D01*
X13004784Y4495792D01*
Y4521183D01*
X12979391Y4546575D01*
X12928609D01*
X12903217Y4521183D01*
X13055566D02*
X13080959Y4546575D01*
X13131743D01*
X13157133Y4521183D01*
Y4419617D01*
X13131743Y4394225D01*
X13080959D01*
X13055566Y4419617D01*
Y4521183D01*
X12736962Y4127524D02*
Y4279875D01*
X12813136D01*
X12838528Y4254483D01*
Y4203700D01*
X12813136Y4178308D01*
X12736962D01*
X12787745D02*
X12838528Y4127524D01*
X12889313D02*
X12940096D01*
X12914703D01*
Y4279875D01*
X12889313Y4254483D01*
X13016270Y4152916D02*
X13041663Y4127524D01*
X13092447D01*
X13117838Y4152916D01*
Y4254483D01*
X13092447Y4279875D01*
X13041663D01*
X13016270Y4254483D01*
Y4229092D01*
X13041663Y4203700D01*
X13117838D01*
X11582441Y4178275D02*
Y4051317D01*
X11607833Y4025925D01*
X11658617D01*
X11684008Y4051317D01*
Y4178275D01*
X11734792Y4152883D02*
X11760184Y4178275D01*
X11810967D01*
X11836359Y4152883D01*
Y4127492D01*
X11810967Y4102100D01*
X11836359Y4076708D01*
Y4051317D01*
X11810967Y4025925D01*
X11760184D01*
X11734792Y4051317D01*
Y4076708D01*
X11760184Y4102100D01*
X11734792Y4127492D01*
Y4152883D01*
X11760184Y4102100D02*
X11810967D01*
X7810541Y8343875D02*
Y8318483D01*
X7861325Y8267700D01*
X7912108Y8318483D01*
Y8343875D01*
X7861325Y8267700D02*
Y8191525D01*
X8064459D02*
X7962892D01*
X8064459Y8293092D01*
Y8318483D01*
X8039067Y8343875D01*
X7988284D01*
X7962892Y8318483D01*
X7581908Y8275683D02*
X7556517Y8301075D01*
X7505733D01*
X7480341Y8275683D01*
Y8174116D01*
X7505733Y8148725D01*
X7556517D01*
X7581908Y8174116D01*
X7632692Y8275683D02*
X7658084Y8301075D01*
X7708867D01*
X7734259Y8275683D01*
Y8250292D01*
X7708867Y8224900D01*
X7683475D01*
X7708867D01*
X7734259Y8199508D01*
Y8174116D01*
X7708867Y8148725D01*
X7658084D01*
X7632692Y8174116D01*
X8293108Y8272384D02*
X8267717Y8297775D01*
X8216933D01*
X8191541Y8272384D01*
Y8170817D01*
X8216933Y8145425D01*
X8267717D01*
X8293108Y8170817D01*
X8420067Y8145425D02*
Y8297775D01*
X8343892Y8221600D01*
X8445459D01*
X11490960Y12628831D02*
Y12476480D01*
X11567135D01*
X11592527Y12501872D01*
Y12603439D01*
X11567135Y12628831D01*
X11490960D01*
X11744878Y12476480D02*
X11643311D01*
X11744878Y12578047D01*
Y12603439D01*
X11719486Y12628831D01*
X11668703D01*
X11643311Y12603439D01*
X11084560Y12628831D02*
Y12476480D01*
X11160735D01*
X11186127Y12501872D01*
Y12603439D01*
X11160735Y12628831D01*
X11084560D01*
X11338478D02*
X11236911D01*
Y12552655D01*
X11287694Y12578047D01*
X11313086D01*
X11338478Y12552655D01*
Y12501872D01*
X11313086Y12476480D01*
X11262303D01*
X11236911Y12501872D01*
X10292080Y5217111D02*
Y5090152D01*
X10317472Y5064760D01*
X10368255D01*
X10393647Y5090152D01*
Y5217111D01*
X10545998Y5064760D02*
X10444431D01*
X10545998Y5166327D01*
Y5191719D01*
X10520606Y5217111D01*
X10469823D01*
X10444431Y5191719D01*
X10099007Y3969971D02*
X10048223D01*
X10073615D01*
Y3843012D01*
X10048223Y3817620D01*
X10022832D01*
X9997440Y3843012D01*
X10149791Y3944579D02*
X10175183Y3969971D01*
X10225966D01*
X10251358Y3944579D01*
Y3919187D01*
X10225966Y3893795D01*
X10200574D01*
X10225966D01*
X10251358Y3868403D01*
Y3843012D01*
X10225966Y3817620D01*
X10175183D01*
X10149791Y3843012D01*
X5369560Y12473891D02*
Y12321540D01*
X5445735D01*
X5471127Y12346932D01*
Y12448499D01*
X5445735Y12473891D01*
X5369560D01*
X5521911D02*
X5623478D01*
Y12448499D01*
X5521911Y12346932D01*
Y12321540D01*
X6428740Y12164060D02*
Y12316411D01*
X6504915D01*
X6530307Y12291019D01*
Y12240235D01*
X6504915Y12214843D01*
X6428740D01*
X6479523D02*
X6530307Y12164060D01*
X6682658D02*
X6581091D01*
X6682658Y12265627D01*
Y12291019D01*
X6657266Y12316411D01*
X6606483D01*
X6581091Y12291019D01*
X6733441Y12164060D02*
X6784225D01*
X6758833D01*
Y12316411D01*
X6733441Y12291019D01*
X7452360Y5643831D02*
Y5516872D01*
X7477752Y5491480D01*
X7528535D01*
X7553927Y5516872D01*
Y5643831D01*
X7604711Y5516872D02*
X7630103Y5491480D01*
X7680886D01*
X7706278Y5516872D01*
Y5618439D01*
X7680886Y5643831D01*
X7630103D01*
X7604711Y5618439D01*
Y5593047D01*
X7630103Y5567655D01*
X7706278D01*
X6731000Y11716971D02*
Y11590012D01*
X6756392Y11564620D01*
X6807175D01*
X6832567Y11590012D01*
Y11716971D01*
X6883351Y11564620D02*
X6934134D01*
X6908743D01*
Y11716971D01*
X6883351Y11691579D01*
X8455660Y5669231D02*
Y5542272D01*
X8481052Y5516880D01*
X8531835D01*
X8557227Y5542272D01*
Y5669231D01*
X8608011Y5516880D02*
X8658794D01*
X8633403D01*
Y5669231D01*
X8608011Y5643839D01*
X8734970D02*
X8760361Y5669231D01*
X8811145D01*
X8836537Y5643839D01*
Y5542272D01*
X8811145Y5516880D01*
X8760361D01*
X8734970Y5542272D01*
Y5643839D01*
X6372860Y5631131D02*
Y5504172D01*
X6398252Y5478780D01*
X6449035D01*
X6474427Y5504172D01*
Y5631131D01*
X6525211Y5478780D02*
X6575994D01*
X6550603D01*
Y5631131D01*
X6525211Y5605739D01*
X6652170Y5478780D02*
X6702953D01*
X6677561D01*
Y5631131D01*
X6652170Y5605739D01*
X6428740Y3794760D02*
Y3947111D01*
X6504915D01*
X6530307Y3921719D01*
Y3870935D01*
X6504915Y3845543D01*
X6428740D01*
X6581091Y3794760D02*
X6631874D01*
X6606483D01*
Y3947111D01*
X6581091Y3921719D01*
X5280660Y5610811D02*
Y5483852D01*
X5306052Y5458460D01*
X5356835D01*
X5382227Y5483852D01*
Y5610811D01*
X5433011Y5585419D02*
X5458403Y5610811D01*
X5509186D01*
X5534578Y5585419D01*
Y5560027D01*
X5509186Y5534635D01*
X5483794D01*
X5509186D01*
X5534578Y5509243D01*
Y5483852D01*
X5509186Y5458460D01*
X5458403D01*
X5433011Y5483852D01*
X8067040Y10995660D02*
Y11148011D01*
X8143215D01*
X8168607Y11122619D01*
Y11071835D01*
X8143215Y11046443D01*
X8067040D01*
X8117823D02*
X8168607Y10995660D01*
X8219391D02*
X8270174D01*
X8244783D01*
Y11148011D01*
X8219391Y11122619D01*
X8447917Y11148011D02*
X8346350D01*
Y11071835D01*
X8397133Y11097227D01*
X8422525D01*
X8447917Y11071835D01*
Y11021052D01*
X8422525Y10995660D01*
X8371741D01*
X8346350Y11021052D01*
X7614920Y10944811D02*
Y10817852D01*
X7640312Y10792460D01*
X7691095D01*
X7716487Y10817852D01*
Y10944811D01*
X7843446Y10792460D02*
Y10944811D01*
X7767271Y10868635D01*
X7868838D01*
X5021547Y9624011D02*
X4970763D01*
X4996155D01*
Y9497052D01*
X4970763Y9471660D01*
X4945372D01*
X4919980Y9497052D01*
X5072331Y9471660D02*
X5123114D01*
X5097723D01*
Y9624011D01*
X5072331Y9598619D01*
X9418287Y10899099D02*
X9392895Y10924491D01*
X9342112D01*
X9316720Y10899099D01*
Y10873707D01*
X9342112Y10848315D01*
X9392895D01*
X9418287Y10822923D01*
Y10797532D01*
X9392895Y10772140D01*
X9342112D01*
X9316720Y10797532D01*
X9469071Y10924491D02*
Y10772140D01*
X9519854Y10822923D01*
X9570638Y10772140D01*
Y10924491D01*
X9621421D02*
Y10772140D01*
X9697597D01*
X9722989Y10797532D01*
Y10899099D01*
X9697597Y10924491D01*
X9621421D01*
X9773772Y10772140D02*
X9824556D01*
X9799164D01*
Y10924491D01*
X9773772Y10899099D01*
X11353800Y5133291D02*
Y4980940D01*
X11455367D01*
X11506151D02*
X11556934D01*
X11531543D01*
Y5133291D01*
X11506151Y5107899D01*
X12270707Y5915619D02*
X12245315Y5941011D01*
X12194532D01*
X12169140Y5915619D01*
Y5814052D01*
X12194532Y5788660D01*
X12245315D01*
X12270707Y5814052D01*
X12423058Y5941011D02*
X12321491D01*
Y5864835D01*
X12372274Y5890227D01*
X12397666D01*
X12423058Y5864835D01*
Y5814052D01*
X12397666Y5788660D01*
X12346883D01*
X12321491Y5814052D01*
X12131007Y9715451D02*
X12080223D01*
X12105615D01*
Y9588492D01*
X12080223Y9563100D01*
X12054832D01*
X12029440Y9588492D01*
X12283358Y9563100D02*
X12181791D01*
X12283358Y9664667D01*
Y9690059D01*
X12257966Y9715451D01*
X12207183D01*
X12181791Y9690059D01*
X12446000Y5072331D02*
Y4945372D01*
X12471392Y4919980D01*
X12522175D01*
X12547567Y4945372D01*
Y5072331D01*
X12699918D02*
X12598351D01*
Y4996155D01*
X12649134Y5021547D01*
X12674526D01*
X12699918Y4996155D01*
Y4945372D01*
X12674526Y4919980D01*
X12623743D01*
X12598351Y4945372D01*
X12232640Y11282631D02*
Y11155672D01*
X12258032Y11130280D01*
X12308815D01*
X12334207Y11155672D01*
Y11282631D01*
X12384991Y11130280D02*
X12435774D01*
X12410383D01*
Y11282631D01*
X12384991Y11257239D01*
X12613517Y11130280D02*
X12511950D01*
X12613517Y11231847D01*
Y11257239D01*
X12588125Y11282631D01*
X12537341D01*
X12511950Y11257239D01*
X4955540Y11282631D02*
Y11155672D01*
X4980932Y11130280D01*
X5031715D01*
X5057107Y11155672D01*
Y11282631D01*
X5107891Y11130280D02*
X5158674D01*
X5133283D01*
Y11282631D01*
X5107891Y11257239D01*
X5234850D02*
X5260241Y11282631D01*
X5311025D01*
X5336417Y11257239D01*
Y11231847D01*
X5311025Y11206455D01*
X5285633D01*
X5311025D01*
X5336417Y11181063D01*
Y11155672D01*
X5311025Y11130280D01*
X5260241D01*
X5234850Y11155672D01*
X7886700Y9052511D02*
Y9027119D01*
X7937483Y8976335D01*
X7988267Y9027119D01*
Y9052511D01*
X7937483Y8976335D02*
Y8900160D01*
X8039051D02*
X8089834D01*
X8064443D01*
Y9052511D01*
X8039051Y9027119D01*
X7647907Y9052519D02*
X7622515Y9077911D01*
X7571732D01*
X7546340Y9052519D01*
Y8950952D01*
X7571732Y8925560D01*
X7622515D01*
X7647907Y8950952D01*
X7698691Y8925560D02*
X7749474D01*
X7724083D01*
Y9077911D01*
X7698691Y9052519D01*
X8308307Y9032199D02*
X8282915Y9057591D01*
X8232132D01*
X8206740Y9032199D01*
Y8930632D01*
X8232132Y8905240D01*
X8282915D01*
X8308307Y8930632D01*
X8460658Y8905240D02*
X8359091D01*
X8460658Y9006807D01*
Y9032199D01*
X8435266Y9057591D01*
X8384483D01*
X8359091Y9032199D01*
%TF.MD5,c7b8bfa53f6a64b3a3c8eb312bcd6848*%
M02*
