%TF.GenerationSoftware,Altium Limited,Altium Designer,24.1.2 (44)*%
G04 Layer_Color=16711935*
%FSLAX45Y45*%
%MOMM*%
%TF.SameCoordinates,E01E6690-4C2E-4FB1-AE08-5A5A66155338*%
%TF.FilePolarity,Positive*%
%TF.FileFunction,Other,Mechanical_1*%
%TF.Part,Single*%
G01*
G75*
%TA.AperFunction,NonConductor*%
%ADD52C,0.20000*%
%ADD83C,0.10160*%
%ADD84C,0.15000*%
D52*
X14555103Y12622898D02*
G03*
X14338300Y12712700I-216802J-216802D01*
G01*
X14728545Y3057245D02*
G03*
X14744701Y3096247I-39003J39003D01*
G01*
X4785721Y12558121D02*
G03*
X4749800Y12471400I86721J-86721D01*
G01*
X4850498Y2960002D02*
G03*
X5067300Y2870200I216802J216802D01*
G01*
X4749800Y3187700D02*
G03*
X4839602Y2970898I306605J0D01*
G01*
X14706599Y12471400D02*
X14744701Y3096250D01*
X14555104Y12622896D02*
X14706599Y12471400D01*
X14541499Y2870200D02*
X14728546Y3057246D01*
X4940300Y12712700D02*
X14338300D01*
X4785721Y12558121D02*
X4940300Y12712700D01*
X5067300Y2870200D02*
X14541499D01*
X4839604Y2970896D02*
X4850496Y2960004D01*
X4749800Y3187700D02*
Y12471400D01*
D83*
X12273100Y4558525D02*
Y4622004D01*
X12260404Y4634700D01*
X12235012D01*
X12222316Y4622004D01*
Y4558525D01*
X12196925D02*
X12146141D01*
Y4571220D01*
X12196925Y4622004D01*
Y4634700D01*
D84*
X13454961Y10617200D02*
X13354994D01*
X13335001Y10597206D01*
Y10557219D01*
X13354994Y10537226D01*
X13454961D01*
X13335001Y10497239D02*
Y10457252D01*
Y10477245D01*
X13454961D01*
X13434969Y10497239D01*
X13335001Y10317297D02*
Y10397271D01*
X13414973Y10317297D01*
X13434969D01*
X13454961Y10337290D01*
Y10377277D01*
X13434969Y10397271D01*
X6012761Y10871200D02*
X5912794D01*
X5892800Y10851206D01*
Y10811219D01*
X5912794Y10791226D01*
X6012761D01*
X5892800Y10751239D02*
Y10711252D01*
Y10731245D01*
X6012761D01*
X5992768Y10751239D01*
Y10651271D02*
X6012761Y10631277D01*
Y10591290D01*
X5992768Y10571297D01*
X5972774D01*
X5952781Y10591290D01*
Y10611284D01*
Y10591290D01*
X5932787Y10571297D01*
X5912794D01*
X5892800Y10591290D01*
Y10631277D01*
X5912794Y10651271D01*
%TF.MD5,54554dd1f214ae03b3a9f6de41045971*%
M02*
