%TF.GenerationSoftware,Altium Limited,Altium Designer,24.1.2 (44)*%
G04 Layer_Color=32768*
%FSLAX45Y45*%
%MOMM*%
%TF.SameCoordinates,E01E6690-4C2E-4FB1-AE08-5A5A66155338*%
%TF.FilePolarity,Positive*%
%TF.FileFunction,Other,Mechanical_15*%
%TF.Part,Single*%
G01*
G75*
%TA.AperFunction,NonConductor*%
%ADD50C,0.10000*%
%ADD85C,0.05000*%
D50*
X7576200Y9660499D02*
Y9770501D01*
X7816200Y9660499D02*
Y9770501D01*
X7576200D02*
X7816200D01*
X7576200Y9660499D02*
X7816200D01*
X7648702Y9715500D02*
X7743698D01*
X7696200Y9668002D02*
Y9762998D01*
X7387199Y9849500D02*
X7497201D01*
X7387199Y10089500D02*
X7497201D01*
X7387199Y9849500D02*
Y10089500D01*
X7497201Y9849500D02*
Y10089500D01*
X7442200Y9922002D02*
Y10016998D01*
X7394702Y9969500D02*
X7489698D01*
X7387199Y10127701D02*
X7497201D01*
X7387199Y10367701D02*
X7497201D01*
X7387199Y10127701D02*
Y10367701D01*
X7497201Y10127701D02*
Y10367701D01*
X7442200Y10200198D02*
Y10295199D01*
X7394702Y10247701D02*
X7489698D01*
X7387199Y10648300D02*
X7497201D01*
X7387199Y10408300D02*
X7497201D01*
Y10648300D01*
X7387199Y10408300D02*
Y10648300D01*
X7442200Y10480802D02*
Y10575798D01*
X7394702Y10528300D02*
X7489698D01*
X8555599Y10786801D02*
X8665601D01*
X8555599Y10546801D02*
X8665601D01*
Y10786801D01*
X8555599Y10546801D02*
Y10786801D01*
X8610600Y10619298D02*
Y10714299D01*
X8563102Y10666801D02*
X8658098D01*
X8504799Y9976500D02*
X8614801D01*
X8504799Y10216500D02*
X8614801D01*
X8504799Y9976500D02*
Y10216500D01*
X8614801Y9976500D02*
Y10216500D01*
X8559800Y10049002D02*
Y10143998D01*
X8512302Y10096500D02*
X8607298D01*
X11130900Y3780399D02*
Y3890401D01*
X10890900Y3780399D02*
Y3890401D01*
Y3780399D02*
X11130900D01*
X10890900Y3890401D02*
X11130900D01*
X10963402Y3835400D02*
X11058398D01*
X11010900Y3787902D02*
Y3882898D01*
X12454199Y3920099D02*
Y4030101D01*
X12694199Y3920099D02*
Y4030101D01*
X12454199D02*
X12694199D01*
X12454199Y3920099D02*
X12694199D01*
X12526701Y3975100D02*
X12621702D01*
X12574199Y3927602D02*
Y4022598D01*
X12429099Y5329499D02*
X12539101D01*
X12429099Y5569499D02*
X12539101D01*
X12429099Y5329499D02*
Y5569499D01*
X12539101Y5329499D02*
Y5569499D01*
X12484100Y5402001D02*
Y5497002D01*
X12436602Y5449499D02*
X12531598D01*
X11997299Y5315600D02*
X12107301D01*
X11997299Y5555600D02*
X12107301D01*
X11997299Y5315600D02*
Y5555600D01*
X12107301Y5315600D02*
Y5555600D01*
X12052300Y5388102D02*
Y5483098D01*
X12004802Y5435600D02*
X12099798D01*
X12691801Y4402699D02*
Y4512701D01*
X12451801Y4402699D02*
Y4512701D01*
Y4402699D02*
X12691801D01*
X12451801Y4512701D02*
X12691801D01*
X12524298Y4457700D02*
X12619299D01*
X12571801Y4410202D02*
Y4505198D01*
X12680300Y4161399D02*
Y4271401D01*
X12440300Y4161399D02*
Y4271401D01*
Y4161399D02*
X12680300D01*
X12440300Y4271401D02*
X12680300D01*
X12512802Y4216400D02*
X12607798D01*
X12560300Y4168902D02*
Y4263898D01*
X7544598Y7874000D02*
X7644602D01*
X7594600Y7824003D02*
Y7924002D01*
X7689601Y7674000D02*
Y8074000D01*
X7499599Y7674000D02*
Y8074000D01*
X7689601D01*
X7499599Y7674000D02*
X7689601D01*
X8268503Y7878699D02*
X8368502D01*
X8318500Y7828702D02*
Y7928701D01*
X8223499Y7678699D02*
Y8078699D01*
X8413501Y7678699D02*
Y8078699D01*
X8223499Y7678699D02*
X8413501D01*
X8223499Y8078699D02*
X8413501D01*
X10706903Y4610100D02*
X10806902D01*
X10756900Y4560098D02*
Y4660102D01*
X6409299Y11842201D02*
X6519301D01*
X6409299Y12082201D02*
X6519301D01*
X6409299Y11842201D02*
Y12082201D01*
X6519301Y11842201D02*
Y12082201D01*
X6464300Y11914698D02*
Y12009699D01*
X6416802Y11962201D02*
X6511798D01*
X8287299Y10803499D02*
Y10913501D01*
X8047299Y10803499D02*
Y10913501D01*
Y10803499D02*
X8287299D01*
X8047299Y10913501D02*
X8287299D01*
X8119801Y10858500D02*
X8214802D01*
X8167299Y10811002D02*
Y10905998D01*
X12192803Y5507101D02*
X12292802D01*
X12242800Y5457099D02*
Y5557098D01*
X12147799Y5307101D02*
Y5707101D01*
X12337801Y5307101D02*
Y5707101D01*
X12147799Y5307101D02*
X12337801D01*
X12147799Y5707101D02*
X12337801D01*
X13170703Y10566400D02*
X13270702D01*
X13220700Y10516403D02*
Y10616402D01*
X5893603Y10566400D02*
X5993602D01*
X5943600Y10516403D02*
Y10616402D01*
X7569998Y8644001D02*
X7670002D01*
X7620000Y8593999D02*
Y8693998D01*
X7715001Y8444001D02*
Y8844001D01*
X7524999Y8444001D02*
Y8844001D01*
X7715001D01*
X7524999Y8444001D02*
X7715001D01*
X8230403Y8623300D02*
X8330402D01*
X8280400Y8573303D02*
Y8673302D01*
X8185399Y8423300D02*
Y8823300D01*
X8375401Y8423300D02*
Y8823300D01*
X8185399Y8423300D02*
X8375401D01*
X8185399Y8823300D02*
X8375401D01*
D85*
X12277700Y4499000D02*
Y4899000D01*
X11877700Y4499000D02*
Y4899000D01*
Y4499000D02*
X12277700D01*
X11877700Y4899000D02*
X12277700D01*
X11221898Y4235099D02*
Y4985101D01*
X10291902Y4235099D02*
Y4985101D01*
X11221898D01*
X10291902Y4235099D02*
X11221898D01*
X12210699Y10081402D02*
Y11051398D01*
X14230701Y10081402D02*
Y11051398D01*
X12210699Y10081402D02*
X14230701D01*
X12210699Y11051398D02*
X14230701D01*
X4933599Y10081402D02*
Y11051398D01*
X6953601Y10081402D02*
Y11051398D01*
X4933599Y10081402D02*
X6953601D01*
X4933599Y11051398D02*
X6953601D01*
%TF.MD5,8331e50997ae2ae5f6dfdf465a802905*%
M02*
