%TF.GenerationSoftware,Altium Limited,Altium Designer,24.1.2 (44)*%
G04 Layer_Color=8388736*
%FSLAX45Y45*%
%MOMM*%
%TF.SameCoordinates,E01E6690-4C2E-4FB1-AE08-5A5A66155338*%
%TF.FilePolarity,Negative*%
%TF.FileFunction,Soldermask,Top*%
%TF.Part,Single*%
G01*
G75*
%TA.AperFunction,SMDPad,CuDef*%
G04:AMPARAMS|DCode=11|XSize=2.05mm|YSize=3.05mm|CornerRadius=0.05125mm|HoleSize=0mm|Usage=FLASHONLY|Rotation=90.000|XOffset=0mm|YOffset=0mm|HoleType=Round|Shape=RoundedRectangle|*
%AMROUNDEDRECTD11*
21,1,2.05000,2.94750,0,0,90.0*
21,1,1.94750,3.05000,0,0,90.0*
1,1,0.10250,1.47375,0.97375*
1,1,0.10250,1.47375,-0.97375*
1,1,0.10250,-1.47375,-0.97375*
1,1,0.10250,-1.47375,0.97375*
%
%ADD11ROUNDEDRECTD11*%
G04:AMPARAMS|DCode=12|XSize=0.24mm|YSize=0.6mm|CornerRadius=0.0504mm|HoleSize=0mm|Usage=FLASHONLY|Rotation=90.000|XOffset=0mm|YOffset=0mm|HoleType=Round|Shape=RoundedRectangle|*
%AMROUNDEDRECTD12*
21,1,0.24000,0.49920,0,0,90.0*
21,1,0.13920,0.60000,0,0,90.0*
1,1,0.10080,0.24960,0.06960*
1,1,0.10080,0.24960,-0.06960*
1,1,0.10080,-0.24960,-0.06960*
1,1,0.10080,-0.24960,0.06960*
%
%ADD12ROUNDEDRECTD12*%
G04:AMPARAMS|DCode=13|XSize=0.6mm|YSize=0.24mm|CornerRadius=0.0504mm|HoleSize=0mm|Usage=FLASHONLY|Rotation=90.000|XOffset=0mm|YOffset=0mm|HoleType=Round|Shape=RoundedRectangle|*
%AMROUNDEDRECTD13*
21,1,0.60000,0.13920,0,0,90.0*
21,1,0.49920,0.24000,0,0,90.0*
1,1,0.10080,0.06960,0.24960*
1,1,0.10080,0.06960,-0.24960*
1,1,0.10080,-0.06960,-0.24960*
1,1,0.10080,-0.06960,0.24960*
%
%ADD13ROUNDEDRECTD13*%
%ADD14R,1.50000X1.50000*%
%ADD15R,0.90000X0.65000*%
%ADD22R,0.60000X1.10000*%
%ADD23R,1.15000X1.40000*%
%ADD27R,7.00000X7.00000*%
%ADD28R,1.50000X2.50000*%
G04:AMPARAMS|DCode=29|XSize=1.46395mm|YSize=0.47583mm|CornerRadius=0.23791mm|HoleSize=0mm|Usage=FLASHONLY|Rotation=0.000|XOffset=0mm|YOffset=0mm|HoleType=Round|Shape=RoundedRectangle|*
%AMROUNDEDRECTD29*
21,1,1.46395,0.00000,0,0,0.0*
21,1,0.98813,0.47583,0,0,0.0*
1,1,0.47583,0.49406,0.00000*
1,1,0.47583,-0.49406,0.00000*
1,1,0.47583,-0.49406,0.00000*
1,1,0.47583,0.49406,0.00000*
%
%ADD29ROUNDEDRECTD29*%
%ADD30R,1.46395X0.47583*%
G04:AMPARAMS|DCode=31|XSize=1.5mm|YSize=0.45mm|CornerRadius=0.0495mm|HoleSize=0mm|Usage=FLASHONLY|Rotation=0.000|XOffset=0mm|YOffset=0mm|HoleType=Round|Shape=RoundedRectangle|*
%AMROUNDEDRECTD31*
21,1,1.50000,0.35100,0,0,0.0*
21,1,1.40100,0.45000,0,0,0.0*
1,1,0.09900,0.70050,-0.17550*
1,1,0.09900,-0.70050,-0.17550*
1,1,0.09900,-0.70050,0.17550*
1,1,0.09900,0.70050,0.17550*
%
%ADD31ROUNDEDRECTD31*%
%ADD32R,1.50000X1.75000*%
G04:AMPARAMS|DCode=33|XSize=0.61107mm|YSize=0.29247mm|CornerRadius=0.14624mm|HoleSize=0mm|Usage=FLASHONLY|Rotation=180.000|XOffset=0mm|YOffset=0mm|HoleType=Round|Shape=RoundedRectangle|*
%AMROUNDEDRECTD33*
21,1,0.61107,0.00000,0,0,180.0*
21,1,0.31860,0.29247,0,0,180.0*
1,1,0.29247,-0.15930,0.00000*
1,1,0.29247,0.15930,0.00000*
1,1,0.29247,0.15930,0.00000*
1,1,0.29247,-0.15930,0.00000*
%
%ADD33ROUNDEDRECTD33*%
%ADD34R,0.61107X0.29247*%
%ADD35R,1.90000X1.10000*%
%TA.AperFunction,ViaPad*%
%ADD48C,0.50000*%
%TA.AperFunction,SMDPad,CuDef*%
%ADD54O,0.42320X3.20320*%
%ADD55O,3.20320X0.42320*%
%ADD56R,0.90320X1.10320*%
%ADD57R,1.10320X0.90320*%
G04:AMPARAMS|DCode=58|XSize=1.79mm|YSize=2.54mm|CornerRadius=0.1195mm|HoleSize=0mm|Usage=FLASHONLY|Rotation=180.000|XOffset=0mm|YOffset=0mm|HoleType=Round|Shape=RoundedRectangle|*
%AMROUNDEDRECTD58*
21,1,1.79000,2.30100,0,0,180.0*
21,1,1.55100,2.54000,0,0,180.0*
1,1,0.23900,-0.77550,1.15050*
1,1,0.23900,0.77550,1.15050*
1,1,0.23900,0.77550,-1.15050*
1,1,0.23900,-0.77550,-1.15050*
%
%ADD58ROUNDEDRECTD58*%
G04:AMPARAMS|DCode=59|XSize=0.42mm|YSize=0.99mm|CornerRadius=0.1204mm|HoleSize=0mm|Usage=FLASHONLY|Rotation=270.000|XOffset=0mm|YOffset=0mm|HoleType=Round|Shape=RoundedRectangle|*
%AMROUNDEDRECTD59*
21,1,0.42000,0.74920,0,0,270.0*
21,1,0.17920,0.99000,0,0,270.0*
1,1,0.24080,-0.37460,-0.08960*
1,1,0.24080,-0.37460,0.08960*
1,1,0.24080,0.37460,0.08960*
1,1,0.24080,0.37460,-0.08960*
%
%ADD59ROUNDEDRECTD59*%
%ADD60R,1.90320X1.30320*%
%ADD61O,0.80320X2.40320*%
%ADD62R,1.70320X1.70320*%
%TA.AperFunction,NonConductor*%
%ADD63R,0.48321X0.90322*%
%ADD64R,0.48316X0.90322*%
%ADD65R,0.48316X0.90317*%
%ADD66R,0.48321X0.90317*%
%TA.AperFunction,ComponentPad*%
%ADD67C,1.72720*%
%ADD68C,1.70320*%
%ADD69R,1.70320X1.70320*%
%ADD70C,0.20320*%
%ADD71C,2.20320*%
%ADD72C,2.10320*%
%ADD73R,1.70320X1.70320*%
%TA.AperFunction,ViaPad*%
%ADD74C,0.50320*%
%ADD75C,0.70320*%
D11*
X7342414Y6160699D02*
D03*
D12*
X7557414Y6235700D02*
D03*
Y6085698D02*
D03*
X7127413Y6235700D02*
D03*
Y6085698D02*
D03*
D13*
X7167413Y6325697D02*
D03*
X7217415D02*
D03*
X7267412D02*
D03*
X7317415D02*
D03*
X7367412D02*
D03*
X7417415D02*
D03*
X7467412D02*
D03*
X7517414D02*
D03*
Y5995700D02*
D03*
X7467412D02*
D03*
X7417415D02*
D03*
X7367412D02*
D03*
X7317415D02*
D03*
X7267412D02*
D03*
X7217415D02*
D03*
X7167413D02*
D03*
D14*
X9004300Y11889999D02*
D03*
Y12240001D02*
D03*
X8001000Y11889999D02*
D03*
Y12240001D02*
D03*
X13792200Y11889999D02*
D03*
Y12240001D02*
D03*
X12966701Y11887200D02*
D03*
Y12237202D02*
D03*
X13360400Y11892798D02*
D03*
Y12242800D02*
D03*
X7594600Y11877299D02*
D03*
Y12227301D02*
D03*
X11569700Y11892798D02*
D03*
Y12242800D02*
D03*
X11163300Y11892798D02*
D03*
Y12242800D02*
D03*
D15*
X7988300Y11477102D02*
D03*
Y11332098D02*
D03*
X9004300Y11502502D02*
D03*
Y11357498D02*
D03*
X11163300Y11498798D02*
D03*
Y11353800D02*
D03*
X11582400Y11502502D02*
D03*
Y11357498D02*
D03*
X13373100Y11464402D02*
D03*
Y11319398D02*
D03*
X13779500Y11451702D02*
D03*
Y11306698D02*
D03*
X12953999Y11464402D02*
D03*
Y11319398D02*
D03*
X7607300Y11468100D02*
D03*
Y11323102D02*
D03*
D22*
X12172701Y3967099D02*
D03*
X12077700D02*
D03*
X11982699D02*
D03*
Y4237101D02*
D03*
X12077700D02*
D03*
X12172701D02*
D03*
D23*
X8051800Y7979700D02*
D03*
Y7759700D02*
D03*
X7891800D02*
D03*
Y7979700D02*
D03*
D27*
X7797800Y4580799D02*
D03*
X8801100Y4606199D02*
D03*
X6718300Y4568099D02*
D03*
X5626100Y4546600D02*
D03*
D28*
X7567798Y5270800D02*
D03*
X8027802D02*
D03*
X8571098Y5296200D02*
D03*
X9031102D02*
D03*
X6488298Y5258100D02*
D03*
X6948302D02*
D03*
X5396098Y5236601D02*
D03*
X5856102D02*
D03*
D29*
X6978112Y11353800D02*
D03*
X6814088Y11288801D02*
D03*
D30*
Y11418799D02*
D03*
D31*
X8329102Y10644500D02*
D03*
Y10579501D02*
D03*
Y10514498D02*
D03*
Y10449499D02*
D03*
Y10384500D02*
D03*
Y10319502D02*
D03*
Y10254498D02*
D03*
Y10189500D02*
D03*
Y10124501D02*
D03*
Y10059502D02*
D03*
Y9994499D02*
D03*
Y9929500D02*
D03*
X7749098D02*
D03*
Y9994499D02*
D03*
Y10059502D02*
D03*
Y10124501D02*
D03*
Y10189500D02*
D03*
Y10254498D02*
D03*
Y10319502D02*
D03*
Y10384500D02*
D03*
Y10449499D02*
D03*
Y10514498D02*
D03*
Y10579501D02*
D03*
Y10644500D02*
D03*
D32*
X11455400Y4796201D02*
D03*
Y4521200D02*
D03*
D33*
X12471796Y4659401D02*
D03*
Y4724400D02*
D03*
Y4789399D02*
D03*
X12661900D02*
D03*
Y4724400D02*
D03*
D34*
Y4659401D02*
D03*
D35*
X7975600Y8748298D02*
D03*
Y8498302D02*
D03*
D48*
X7469911Y6160699D02*
D03*
X7214916D02*
D03*
X7342414Y6238199D02*
D03*
Y6083198D02*
D03*
D54*
X9145702Y9436100D02*
D03*
X9195704D02*
D03*
X9245702D02*
D03*
X9295704D02*
D03*
X9345701D02*
D03*
X9395704D02*
D03*
X9445701D02*
D03*
X9495704D02*
D03*
X9545701D02*
D03*
X9595703D02*
D03*
X9645701D02*
D03*
X9695703D02*
D03*
X9745701D02*
D03*
X9795703D02*
D03*
X9845700D02*
D03*
X9895703D02*
D03*
X9945700D02*
D03*
X9995703D02*
D03*
X10045700D02*
D03*
X10095702D02*
D03*
X10145700D02*
D03*
X10195702D02*
D03*
X10245700D02*
D03*
X10295702D02*
D03*
X10345699D02*
D03*
X10395702D02*
D03*
X10445699D02*
D03*
X10495702D02*
D03*
X10545699D02*
D03*
X10595701D02*
D03*
X10645699D02*
D03*
X10695701D02*
D03*
X10745699D02*
D03*
X10795701D02*
D03*
X10845698D02*
D03*
X10895701D02*
D03*
Y6986102D02*
D03*
X10845698D02*
D03*
X10795701D02*
D03*
X10745699D02*
D03*
X10695701D02*
D03*
X10645699D02*
D03*
X10595701D02*
D03*
X10545699D02*
D03*
X10495702D02*
D03*
X10445699D02*
D03*
X10395702D02*
D03*
X10345699D02*
D03*
X10295702D02*
D03*
X10245700D02*
D03*
X10195702D02*
D03*
X10145700D02*
D03*
X10095702D02*
D03*
X10045700D02*
D03*
X9995703D02*
D03*
X9945700D02*
D03*
X9895703D02*
D03*
X9845700D02*
D03*
X9795703D02*
D03*
X9745701D02*
D03*
X9695703D02*
D03*
X9645701D02*
D03*
X9595703D02*
D03*
X9545701D02*
D03*
X9495704D02*
D03*
X9445701D02*
D03*
X9395704D02*
D03*
X9345701D02*
D03*
X9295704D02*
D03*
X9245702D02*
D03*
X9195704D02*
D03*
X9145702D02*
D03*
D55*
X11245698Y9086098D02*
D03*
Y9036101D02*
D03*
Y8986098D02*
D03*
Y8936101D02*
D03*
Y8886099D02*
D03*
Y8836101D02*
D03*
Y8786099D02*
D03*
Y8736101D02*
D03*
Y8686099D02*
D03*
Y8636102D02*
D03*
Y8586099D02*
D03*
Y8536102D02*
D03*
Y8486099D02*
D03*
Y8436102D02*
D03*
Y8386100D02*
D03*
Y8336102D02*
D03*
Y8286100D02*
D03*
Y8236102D02*
D03*
Y8186100D02*
D03*
Y8136103D02*
D03*
Y8086100D02*
D03*
Y8036103D02*
D03*
Y7986100D02*
D03*
Y7936103D02*
D03*
Y7886101D02*
D03*
Y7836103D02*
D03*
Y7786101D02*
D03*
Y7736103D02*
D03*
Y7686101D02*
D03*
Y7636104D02*
D03*
Y7586101D02*
D03*
Y7536104D02*
D03*
Y7486101D02*
D03*
Y7436104D02*
D03*
Y7386102D02*
D03*
Y7336104D02*
D03*
X8795700D02*
D03*
Y7386102D02*
D03*
Y7436104D02*
D03*
Y7486101D02*
D03*
Y7536104D02*
D03*
Y7586101D02*
D03*
Y7636104D02*
D03*
Y7686101D02*
D03*
Y7736103D02*
D03*
Y7786101D02*
D03*
Y7836103D02*
D03*
Y7886101D02*
D03*
Y7936103D02*
D03*
Y7986100D02*
D03*
Y8036103D02*
D03*
Y8086100D02*
D03*
Y8136103D02*
D03*
Y8186100D02*
D03*
Y8236102D02*
D03*
Y8286100D02*
D03*
Y8336102D02*
D03*
Y8386100D02*
D03*
Y8436102D02*
D03*
Y8486099D02*
D03*
Y8536102D02*
D03*
Y8586099D02*
D03*
Y8636102D02*
D03*
Y8686099D02*
D03*
Y8736101D02*
D03*
Y8786099D02*
D03*
Y8836101D02*
D03*
Y8886099D02*
D03*
Y8936101D02*
D03*
Y8986098D02*
D03*
Y9036101D02*
D03*
Y9086098D02*
D03*
D56*
X7621199Y9715500D02*
D03*
X7771201D02*
D03*
X11085901Y3835400D02*
D03*
X10935899D02*
D03*
X12499198Y3975100D02*
D03*
X12649200D02*
D03*
X12646802Y4457700D02*
D03*
X12496800D02*
D03*
X12635301Y4216400D02*
D03*
X12485299D02*
D03*
X8242300Y10858500D02*
D03*
X8092298D02*
D03*
D57*
X7442200Y9894499D02*
D03*
Y10044501D02*
D03*
Y10172700D02*
D03*
Y10322702D02*
D03*
Y10603301D02*
D03*
Y10453299D02*
D03*
X8610600Y10741802D02*
D03*
Y10591800D02*
D03*
X8559800Y10021499D02*
D03*
Y10171501D02*
D03*
X12484100Y5374498D02*
D03*
Y5524500D02*
D03*
X12052300Y5360599D02*
D03*
Y5510601D02*
D03*
X6464300Y11887200D02*
D03*
Y12037202D02*
D03*
D58*
X12077700Y4699000D02*
D03*
D59*
X12225198Y4599000D02*
D03*
Y4648998D02*
D03*
Y4699000D02*
D03*
Y4749002D02*
D03*
Y4799000D02*
D03*
X11930202D02*
D03*
Y4749002D02*
D03*
Y4699000D02*
D03*
Y4648998D02*
D03*
Y4599000D02*
D03*
D60*
X7594600Y8009001D02*
D03*
Y7738999D02*
D03*
X8318500Y7743698D02*
D03*
Y8013700D02*
D03*
X12242800Y5372100D02*
D03*
Y5642102D02*
D03*
X7620000Y8779002D02*
D03*
Y8509000D02*
D03*
X8280400Y8488299D02*
D03*
Y8758301D02*
D03*
D61*
X11137900Y4850100D02*
D03*
X11010900D02*
D03*
X10883900D02*
D03*
X10756900D02*
D03*
X10629900D02*
D03*
X10502900D02*
D03*
X10375900D02*
D03*
X11137900Y4370100D02*
D03*
X11010900D02*
D03*
X10883900D02*
D03*
X10756900D02*
D03*
X10629900D02*
D03*
X10502900D02*
D03*
X10375900D02*
D03*
D62*
X5474599Y12115698D02*
D03*
Y11785702D02*
D03*
X5904601Y12115698D02*
D03*
Y11785702D02*
D03*
D63*
X12102699Y4543999D02*
D03*
D64*
X12052699D02*
D03*
D65*
Y4853998D02*
D03*
D66*
X12102699D02*
D03*
D67*
X10134590Y3581390D02*
D03*
X10388600Y3581400D02*
D03*
X10642600D02*
D03*
X10896600D02*
D03*
X11150600D02*
D03*
X11404600D02*
D03*
X11658590Y3581390D02*
D03*
X11912600Y3581400D02*
D03*
X12166600D02*
D03*
X12420600D02*
D03*
Y3327400D02*
D03*
X12166590Y3327390D02*
D03*
X11912600Y3327400D02*
D03*
X11658600D02*
D03*
X11404600D02*
D03*
X11150600D02*
D03*
X10896600D02*
D03*
X10642600D02*
D03*
X10388600D02*
D03*
X10134600D02*
D03*
D68*
X6540500Y3581400D02*
D03*
X6794500D02*
D03*
X7048500D02*
D03*
X12458700Y10185400D02*
D03*
X12712700D02*
D03*
X12966701D02*
D03*
X13220700D02*
D03*
X13474699D02*
D03*
X13728700D02*
D03*
X13982700D02*
D03*
X12458700Y10947400D02*
D03*
X12712700D02*
D03*
X12966701D02*
D03*
X13220700D02*
D03*
X13474699D02*
D03*
X13728700D02*
D03*
X5181600Y10185400D02*
D03*
X5435600D02*
D03*
X5689600D02*
D03*
X5943600D02*
D03*
X6197600D02*
D03*
X6451600D02*
D03*
X6705600D02*
D03*
X5181600Y10947400D02*
D03*
X5435600D02*
D03*
X5689600D02*
D03*
X5943600D02*
D03*
X6197600D02*
D03*
X6451600D02*
D03*
D69*
X7302500Y3581400D02*
D03*
D70*
X5168900Y7353300D02*
D03*
X5169809Y9129212D02*
D03*
X14046201Y9220200D02*
D03*
X14045291Y7444288D02*
D03*
D71*
X6946900Y9131300D02*
D03*
Y8877300D02*
D03*
Y8623300D02*
D03*
Y8369300D02*
D03*
Y8115300D02*
D03*
Y7861300D02*
D03*
Y7607300D02*
D03*
Y7353300D02*
D03*
X12268200Y7442200D02*
D03*
Y7696200D02*
D03*
Y7950200D02*
D03*
Y8204200D02*
D03*
Y8458200D02*
D03*
Y8712200D02*
D03*
Y8966200D02*
D03*
Y9220200D02*
D03*
D72*
X10464800Y10541000D02*
D03*
X10210800D02*
D03*
X9956800D02*
D03*
X9702800D02*
D03*
X9448800D02*
D03*
Y10287000D02*
D03*
X9702800D02*
D03*
X9956800D02*
D03*
X10210810Y10287010D02*
D03*
X10464800Y10287000D02*
D03*
D73*
X13982700Y10947400D02*
D03*
X6705600D02*
D03*
D74*
X7772400Y5753100D02*
D03*
X7734300Y6299200D02*
D03*
X7453581Y6413500D02*
D03*
X7391400D02*
D03*
X8092120Y6098540D02*
D03*
X6984647Y5841647D02*
D03*
X7175500Y5791200D02*
D03*
X7276358Y5743046D02*
D03*
X7321095Y5948029D02*
D03*
X7366662Y5831656D02*
D03*
X7467600Y5803900D02*
D03*
X6972300Y6050600D02*
D03*
X6819900D02*
D03*
X6896100D02*
D03*
X6451600Y6096000D02*
D03*
X6959600Y5930900D02*
D03*
X7175500Y5867400D02*
D03*
X7119620Y5946140D02*
D03*
X7048500Y5943600D02*
D03*
X6870700D02*
D03*
X7167413Y6504300D02*
D03*
X6565900Y6388100D02*
D03*
X6807200Y6273800D02*
D03*
X6218240Y6527800D02*
D03*
X6928721Y6299199D02*
D03*
X7112000Y6198870D02*
D03*
X7823200Y5854700D02*
D03*
X9456420Y8773160D02*
D03*
X10395702Y9029182D02*
D03*
X6761952Y7051512D02*
D03*
X8763000Y7284400D02*
D03*
X8614542Y6230620D02*
D03*
X8046720Y6035040D02*
D03*
X9195704Y6764020D02*
D03*
X8740140Y6548120D02*
D03*
X7548880Y10866120D02*
D03*
X7564120Y6149340D02*
D03*
X7791856Y6822440D02*
D03*
X6861653D02*
D03*
X6908800Y6913880D02*
D03*
X7749540D02*
D03*
X9032474Y10096500D02*
D03*
X7430882Y10821782D02*
D03*
X11400902Y11176000D02*
D03*
X10375900Y5207000D02*
D03*
X9339580Y6337300D02*
D03*
X7236460Y5604510D02*
D03*
X7665720Y6080760D02*
D03*
X9445701Y6257442D02*
D03*
X9103360Y6179820D02*
D03*
X10375900Y5171440D02*
D03*
X9756140D02*
D03*
X6591300Y6515100D02*
D03*
X9062720Y7360920D02*
D03*
X9756140Y8948420D02*
D03*
X12839700Y10350500D02*
D03*
X9154160Y8773160D02*
D03*
X13350240Y9773920D02*
D03*
X10571480Y9204960D02*
D03*
X9773920Y6357620D02*
D03*
X6344920Y6687972D02*
D03*
X7881417Y10495077D02*
D03*
X6718300Y5100320D02*
D03*
X11310620Y9271000D02*
D03*
X8796020Y10096500D02*
D03*
X12288520Y4323080D02*
D03*
X12560300Y9442450D02*
D03*
X7129780Y8699500D02*
D03*
X11007090Y8394700D02*
D03*
X7990840Y8940800D02*
D03*
X12001500Y8380730D02*
D03*
X12796520Y3467100D02*
D03*
X8905240Y10165080D02*
D03*
X9495704Y6657340D02*
D03*
X9841230D02*
D03*
X11291570Y5207000D02*
D03*
X11219180Y10276840D02*
D03*
X11122660Y9606280D02*
D03*
X12052300Y10043160D02*
D03*
X10883900Y4137660D02*
D03*
X11922760Y6766560D02*
D03*
X10314940Y5006340D02*
D03*
X12303760Y10655300D02*
D03*
X9654540Y9245600D02*
D03*
X9898380Y9786620D02*
D03*
X8679180Y10591800D02*
D03*
X9167815Y9969500D02*
D03*
X7771201Y9573260D02*
D03*
X7358380Y9712960D02*
D03*
X7912618Y10319502D02*
D03*
X11422380Y3746500D02*
D03*
X7581900Y8293100D02*
D03*
X10317480D02*
D03*
X11762740Y5360599D02*
D03*
Y4824730D02*
D03*
X7777099Y8191500D02*
D03*
X9156700D02*
D03*
D75*
X12077700Y4699000D02*
D03*
X12027703Y4623999D02*
D03*
X12127702D02*
D03*
Y4774001D02*
D03*
X12027703D02*
D03*
%TF.MD5,882713a2302876703eeea54822120ffb*%
M02*
