%TF.GenerationSoftware,Altium Limited,Altium Designer,24.1.2 (44)*%
G04 Layer_Color=8388736*
%FSLAX45Y45*%
%MOMM*%
%TF.SameCoordinates,E01E6690-4C2E-4FB1-AE08-5A5A66155338*%
%TF.FilePolarity,Positive*%
%TF.FileFunction,Other,Top_3D_Body*%
%TF.Part,Single*%
G01*
G75*
%TA.AperFunction,NonConductor*%
%ADD52C,0.20000*%
D52*
X7109912Y5978200D02*
X7574915D01*
Y6343198D01*
X7109912D02*
X7574915D01*
X7109912Y5978200D02*
Y6343198D01*
X8919301Y12229998D02*
X9089299D01*
X8919301Y11900002D02*
Y12229998D01*
Y11900002D02*
X9089299D01*
Y12229998D01*
X7916001D02*
X8085999D01*
X7916001Y11900002D02*
Y12229998D01*
Y11900002D02*
X8085999D01*
Y12229998D01*
X7940802Y11319601D02*
X8035798D01*
Y11489599D01*
X7940802D02*
X8035798D01*
X7940802Y11319601D02*
Y11489599D01*
X8956802Y11345001D02*
X9051798D01*
Y11514999D01*
X8956802D02*
X9051798D01*
X8956802Y11345001D02*
Y11514999D01*
X11115802Y11341298D02*
X11210798D01*
Y11511300D01*
X11115802D02*
X11210798D01*
X11115802Y11341298D02*
Y11511300D01*
X11534902Y11345001D02*
X11629898D01*
Y11514999D01*
X11534902D02*
X11629898D01*
X11534902Y11345001D02*
Y11514999D01*
X13325603Y11306901D02*
X13420598D01*
Y11476899D01*
X13325603D02*
X13420598D01*
X13325603Y11306901D02*
Y11476899D01*
X13732002Y11294201D02*
X13826997D01*
Y11464199D01*
X13732002D02*
X13826997D01*
X13732002Y11294201D02*
Y11464199D01*
X13707201Y12229998D02*
X13877199D01*
X13707201Y11900002D02*
Y12229998D01*
Y11900002D02*
X13877199D01*
Y12229998D01*
X12881702Y12227199D02*
X13051698D01*
X12881702Y11897203D02*
Y12227199D01*
Y11897203D02*
X13051698D01*
Y12227199D01*
X13275401Y12232803D02*
X13445399D01*
X13275401Y11902801D02*
Y12232803D01*
Y11902801D02*
X13445399D01*
Y12232803D01*
X12906502Y11306901D02*
X13001498D01*
Y11476899D01*
X12906502D02*
X13001498D01*
X12906502Y11306901D02*
Y11476899D01*
X7559802Y11310600D02*
X7654798D01*
Y11480602D01*
X7559802D02*
X7654798D01*
X7559802Y11310600D02*
Y11480602D01*
X7509601Y12217298D02*
X7679599D01*
X7509601Y11887302D02*
Y12217298D01*
Y11887302D02*
X7679599D01*
Y12217298D01*
X11925198Y4189598D02*
X12230202D01*
X11925198Y4014602D02*
Y4189598D01*
Y4014602D02*
X12230202D01*
Y4189598D01*
X7841798Y8034701D02*
X8101802D01*
X7841798Y7704699D02*
Y8034701D01*
Y7704699D02*
X8101802D01*
Y8034701D01*
X11484701Y12232803D02*
X11654699D01*
X11484701Y11902801D02*
Y12232803D01*
Y11902801D02*
X11654699D01*
Y12232803D01*
X11078301D02*
X11248299D01*
X11078301Y11902801D02*
Y12232803D01*
Y11902801D02*
X11248299D01*
Y12232803D01*
X8134299Y4419798D02*
Y5041798D01*
X7461301D02*
X8134299D01*
X7461301Y4419798D02*
Y5041798D01*
Y4419798D02*
X8134299D01*
X6833601Y11253800D02*
Y11453800D01*
Y11253800D02*
X6958599D01*
Y11453800D01*
X6833601D02*
X6958599D01*
X9137599Y4445198D02*
Y5067198D01*
X8464601D02*
X9137599D01*
X8464601Y4445198D02*
Y5067198D01*
Y4445198D02*
X9137599D01*
X7054799Y4407098D02*
Y5029098D01*
X6381801D02*
X7054799D01*
X6381801Y4407098D02*
Y5029098D01*
Y4407098D02*
X7054799D01*
X5962599Y4385600D02*
Y5007600D01*
X5289601D02*
X5962599D01*
X5289601Y4385600D02*
Y5007600D01*
Y4385600D02*
X5962599D01*
X7814102Y9892000D02*
Y10682000D01*
Y9892000D02*
X8264098D01*
Y10682000D01*
X7814102D02*
X8264098D01*
X11365398Y4483699D02*
X11545402D01*
Y4833701D01*
X11365398D02*
X11545402D01*
X11365398Y4483699D02*
Y4833701D01*
X12666848Y4624400D02*
Y4824400D01*
X12466848D02*
X12666848D01*
X12466848Y4624400D02*
Y4824400D01*
Y4624400D02*
X12666848D01*
X7895600Y8458302D02*
X8055600D01*
Y8788298D01*
X7895600D02*
X8055600D01*
X7895600Y8458302D02*
Y8788298D01*
%TF.MD5,75e9f7f0309ee6eee85bbb1b537e7455*%
M02*
