%TF.GenerationSoftware,Altium Limited,Altium Designer,24.1.2 (44)*%
G04 Layer_Color=128*
%FSLAX45Y45*%
%MOMM*%
%TF.SameCoordinates,E01E6690-4C2E-4FB1-AE08-5A5A66155338*%
%TF.FilePolarity,Positive*%
%TF.FileFunction,Drillmap*%
%TF.Part,Single*%
G01*
G75*
%TA.AperFunction,NonConductor*%
%ADD95C,0.12700*%
D95*
X10096490Y3581390D02*
X10172690D01*
X10134590Y3543290D02*
Y3619490D01*
X10350500Y3581400D02*
X10426700D01*
X10388600Y3543300D02*
Y3619500D01*
X10604500Y3581400D02*
X10680700D01*
X10642600Y3543300D02*
Y3619500D01*
X10858500Y3581400D02*
X10934700D01*
X10896600Y3543300D02*
Y3619500D01*
X11112500Y3581400D02*
X11188700D01*
X11150600Y3543300D02*
Y3619500D01*
X11366500Y3581400D02*
X11442700D01*
X11404600Y3543300D02*
Y3619500D01*
X11620490Y3581390D02*
X11696690D01*
X11658590Y3543290D02*
Y3619490D01*
X11874500Y3581400D02*
X11950700D01*
X11912600Y3543300D02*
Y3619500D01*
X12128500Y3581400D02*
X12204700D01*
X12166600Y3543300D02*
Y3619500D01*
X12382500Y3581400D02*
X12458700D01*
X12420600Y3543300D02*
Y3619500D01*
X12382500Y3327400D02*
X12458700D01*
X12420600Y3289300D02*
Y3365500D01*
X12128490Y3327390D02*
X12204690D01*
X12166590Y3289290D02*
Y3365490D01*
X11874500Y3327400D02*
X11950700D01*
X11912600Y3289300D02*
Y3365500D01*
X11620500Y3327400D02*
X11696700D01*
X11658600Y3289300D02*
Y3365500D01*
X11366500Y3327400D02*
X11442700D01*
X11404600Y3289300D02*
Y3365500D01*
X11112500Y3327400D02*
X11188700D01*
X11150600Y3289300D02*
Y3365500D01*
X10858500Y3327400D02*
X10934700D01*
X10896600Y3289300D02*
Y3365500D01*
X10604500Y3327400D02*
X10680700D01*
X10642600Y3289300D02*
Y3365500D01*
X10350500Y3327400D02*
X10426700D01*
X10388600Y3289300D02*
Y3365500D01*
X10096500Y3327400D02*
X10172700D01*
X10134600Y3289300D02*
Y3365500D01*
X6495500Y3581400D02*
X6585500D01*
X6540500Y3536400D02*
Y3626400D01*
X6749500Y3581400D02*
X6839500D01*
X6794500Y3536400D02*
Y3626400D01*
X7003500Y3581400D02*
X7093500D01*
X7048500Y3536400D02*
Y3626400D01*
X7257500Y3581400D02*
X7347500D01*
X7302500Y3536400D02*
Y3626400D01*
X5041900Y7353300D02*
X5295900D01*
X5168900Y7226300D02*
Y7480300D01*
X5042809Y9129212D02*
X5296809D01*
X5169809Y9002212D02*
Y9256212D01*
X6881900Y9131300D02*
X7011900D01*
X6946900Y9066300D02*
Y9196300D01*
X6881900Y8877300D02*
X7011900D01*
X6946900Y8812300D02*
Y8942300D01*
X6881900Y8623300D02*
X7011900D01*
X6946900Y8558300D02*
Y8688300D01*
X6881900Y8369300D02*
X7011900D01*
X6946900Y8304300D02*
Y8434300D01*
X6881900Y8115300D02*
X7011900D01*
X6946900Y8050300D02*
Y8180300D01*
X6881900Y7861300D02*
X7011900D01*
X6946900Y7796300D02*
Y7926300D01*
X6881900Y7607300D02*
X7011900D01*
X6946900Y7542300D02*
Y7672300D01*
X6881900Y7353300D02*
X7011900D01*
X6946900Y7288300D02*
Y7418300D01*
X10399800Y10541000D02*
X10529800D01*
X10464800Y10476000D02*
Y10606000D01*
X10145800Y10541000D02*
X10275800D01*
X10210800Y10476000D02*
Y10606000D01*
X9891800Y10541000D02*
X10021800D01*
X9956800Y10476000D02*
Y10606000D01*
X9637800Y10541000D02*
X9767800D01*
X9702800Y10476000D02*
Y10606000D01*
X9383800Y10541000D02*
X9513800D01*
X9448800Y10476000D02*
Y10606000D01*
X9383800Y10287000D02*
X9513800D01*
X9448800Y10222000D02*
Y10352000D01*
X9637800Y10287000D02*
X9767800D01*
X9702800Y10222000D02*
Y10352000D01*
X9891800Y10287000D02*
X10021800D01*
X9956800Y10222000D02*
Y10352000D01*
X10145810Y10287010D02*
X10275810D01*
X10210810Y10222010D02*
Y10352010D01*
X10399800Y10287000D02*
X10529800D01*
X10464800Y10222000D02*
Y10352000D01*
X13919200Y9220200D02*
X14173199D01*
X14046201Y9093200D02*
Y9347200D01*
X13918291Y7444288D02*
X14172292D01*
X14045291Y7317288D02*
Y7571288D01*
X12203200Y7442200D02*
X12333200D01*
X12268200Y7377200D02*
Y7507200D01*
X12203200Y7696200D02*
X12333200D01*
X12268200Y7631200D02*
Y7761200D01*
X12203200Y7950200D02*
X12333200D01*
X12268200Y7885200D02*
Y8015200D01*
X12203200Y8204200D02*
X12333200D01*
X12268200Y8139200D02*
Y8269200D01*
X12203200Y8458200D02*
X12333200D01*
X12268200Y8393200D02*
Y8523200D01*
X12203200Y8712200D02*
X12333200D01*
X12268200Y8647200D02*
Y8777200D01*
X12203200Y8966200D02*
X12333200D01*
X12268200Y8901200D02*
Y9031200D01*
X12203200Y9220200D02*
X12333200D01*
X12268200Y9155200D02*
Y9285200D01*
X12413700Y10185400D02*
X12503700D01*
X12458700Y10140400D02*
Y10230400D01*
X12667700Y10185400D02*
X12757700D01*
X12712700Y10140400D02*
Y10230400D01*
X12921700Y10185400D02*
X13011700D01*
X12966701Y10140400D02*
Y10230400D01*
X13175700Y10185400D02*
X13265700D01*
X13220700Y10140400D02*
Y10230400D01*
X13429700Y10185400D02*
X13519701D01*
X13474699Y10140400D02*
Y10230400D01*
X13683701Y10185400D02*
X13773700D01*
X13728700Y10140400D02*
Y10230400D01*
X13937700Y10185400D02*
X14027699D01*
X13982700Y10140400D02*
Y10230400D01*
X12413700Y10947400D02*
X12503700D01*
X12458700Y10902400D02*
Y10992400D01*
X12667700Y10947400D02*
X12757700D01*
X12712700Y10902400D02*
Y10992400D01*
X12921700Y10947400D02*
X13011700D01*
X12966701Y10902400D02*
Y10992400D01*
X13175700Y10947400D02*
X13265700D01*
X13220700Y10902400D02*
Y10992400D01*
X13429700Y10947400D02*
X13519701D01*
X13474699Y10902400D02*
Y10992400D01*
X13683701Y10947400D02*
X13773700D01*
X13728700Y10902400D02*
Y10992400D01*
X13937700Y10947400D02*
X14027699D01*
X13982700Y10902400D02*
Y10992400D01*
X5136600Y10185400D02*
X5226600D01*
X5181600Y10140400D02*
Y10230400D01*
X5390600Y10185400D02*
X5480600D01*
X5435600Y10140400D02*
Y10230400D01*
X5644600Y10185400D02*
X5734600D01*
X5689600Y10140400D02*
Y10230400D01*
X5898600Y10185400D02*
X5988600D01*
X5943600Y10140400D02*
Y10230400D01*
X6152600Y10185400D02*
X6242600D01*
X6197600Y10140400D02*
Y10230400D01*
X6406600Y10185400D02*
X6496600D01*
X6451600Y10140400D02*
Y10230400D01*
X6660600Y10185400D02*
X6750600D01*
X6705600Y10140400D02*
Y10230400D01*
X5136600Y10947400D02*
X5226600D01*
X5181600Y10902400D02*
Y10992400D01*
X5390600Y10947400D02*
X5480600D01*
X5435600Y10902400D02*
Y10992400D01*
X5644600Y10947400D02*
X5734600D01*
X5689600Y10902400D02*
Y10992400D01*
X5898600Y10947400D02*
X5988600D01*
X5943600Y10902400D02*
Y10992400D01*
X6152600Y10947400D02*
X6242600D01*
X6197600Y10902400D02*
Y10992400D01*
X6406600Y10947400D02*
X6496600D01*
X6451600Y10902400D02*
Y10992400D01*
X6660600Y10947400D02*
X6750600D01*
X6705600Y10902400D02*
Y10992400D01*
X7762400Y5753100D02*
X7782400D01*
X7772400Y5743100D02*
Y5763100D01*
X7724300Y6299200D02*
X7744300D01*
X7734300Y6289200D02*
Y6309200D01*
X7443581Y6413500D02*
X7463581D01*
X7453581Y6403500D02*
Y6423500D01*
X7381400Y6413500D02*
X7401400D01*
X7391400Y6403500D02*
Y6423500D01*
X8082120Y6098540D02*
X8102120D01*
X8092120Y6088540D02*
Y6108540D01*
X6974647Y5841647D02*
X6994647D01*
X6984647Y5831647D02*
Y5851647D01*
X7165500Y5791200D02*
X7185500D01*
X7175500Y5781200D02*
Y5801200D01*
X7266358Y5743046D02*
X7286358D01*
X7276358Y5733046D02*
Y5753046D01*
X7311095Y5948029D02*
X7331095D01*
X7321095Y5938029D02*
Y5958029D01*
X7356662Y5831656D02*
X7376662D01*
X7366662Y5821656D02*
Y5841656D01*
X7457600Y5803900D02*
X7477600D01*
X7467600Y5793900D02*
Y5813900D01*
X7459911Y6160699D02*
X7479911D01*
X7469911Y6150699D02*
Y6170699D01*
X7204916Y6160699D02*
X7224916D01*
X7214916Y6150699D02*
Y6170699D01*
X7332414Y6238199D02*
X7352414D01*
X7342414Y6228199D02*
Y6248199D01*
X7332414Y6083198D02*
X7352414D01*
X7342414Y6073198D02*
Y6093198D01*
X6962300Y6050600D02*
X6982300D01*
X6972300Y6040600D02*
Y6060600D01*
X6809900Y6050600D02*
X6829900D01*
X6819900Y6040600D02*
Y6060600D01*
X6886100Y6050600D02*
X6906100D01*
X6896100Y6040600D02*
Y6060600D01*
X6441600Y6096000D02*
X6461600D01*
X6451600Y6086000D02*
Y6106000D01*
X6949600Y5930900D02*
X6969600D01*
X6959600Y5920900D02*
Y5940900D01*
X7165500Y5867400D02*
X7185500D01*
X7175500Y5857400D02*
Y5877400D01*
X7109620Y5946140D02*
X7129620D01*
X7119620Y5936140D02*
Y5956140D01*
X7038500Y5943600D02*
X7058500D01*
X7048500Y5933600D02*
Y5953600D01*
X6860700Y5943600D02*
X6880700D01*
X6870700Y5933600D02*
Y5953600D01*
X7157413Y6504300D02*
X7177413D01*
X7167413Y6494300D02*
Y6514300D01*
X6555900Y6388100D02*
X6575900D01*
X6565900Y6378100D02*
Y6398100D01*
X6797200Y6273800D02*
X6817200D01*
X6807200Y6263800D02*
Y6283800D01*
X6208240Y6527800D02*
X6228240D01*
X6218240Y6517800D02*
Y6537800D01*
X6918721Y6299199D02*
X6938721D01*
X6928721Y6289199D02*
Y6309199D01*
X7102000Y6198870D02*
X7122000D01*
X7112000Y6188870D02*
Y6208870D01*
X7813200Y5854700D02*
X7833200D01*
X7823200Y5844700D02*
Y5864700D01*
X9446420Y8773160D02*
X9466420D01*
X9456420Y8763160D02*
Y8783160D01*
X10385702Y9029182D02*
X10405702D01*
X10395702Y9019182D02*
Y9039182D01*
X6751952Y7051512D02*
X6771952D01*
X6761952Y7041512D02*
Y7061512D01*
X8753000Y7284400D02*
X8773000D01*
X8763000Y7274400D02*
Y7294400D01*
X8604542Y6230620D02*
X8624542D01*
X8614542Y6220620D02*
Y6240620D01*
X8036720Y6035040D02*
X8056720D01*
X8046720Y6025040D02*
Y6045040D01*
X9185704Y6764020D02*
X9205704D01*
X9195704Y6754020D02*
Y6774020D01*
X8730140Y6548120D02*
X8750140D01*
X8740140Y6538120D02*
Y6558120D01*
X7538880Y10866120D02*
X7558880D01*
X7548880Y10856120D02*
Y10876120D01*
X7554120Y6149340D02*
X7574120D01*
X7564120Y6139340D02*
Y6159340D01*
X7781856Y6822440D02*
X7801856D01*
X7791856Y6812440D02*
Y6832440D01*
X6851653Y6822440D02*
X6871653D01*
X6861653Y6812440D02*
Y6832440D01*
X6898800Y6913880D02*
X6918800D01*
X6908800Y6903880D02*
Y6923880D01*
X7739540Y6913880D02*
X7759540D01*
X7749540Y6903880D02*
Y6923880D01*
X9022474Y10096500D02*
X9042474D01*
X9032474Y10086500D02*
Y10106500D01*
X7420882Y10821782D02*
X7440882D01*
X7430882Y10811782D02*
Y10831782D01*
X11390902Y11176000D02*
X11410902D01*
X11400902Y11166000D02*
Y11186000D01*
X10365900Y5207000D02*
X10385900D01*
X10375900Y5197000D02*
Y5217000D01*
X9329580Y6337300D02*
X9349580D01*
X9339580Y6327300D02*
Y6347300D01*
X7226460Y5604510D02*
X7246460D01*
X7236460Y5594510D02*
Y5614510D01*
X7655720Y6080760D02*
X7675720D01*
X7665720Y6070760D02*
Y6090760D01*
X9435701Y6257442D02*
X9455701D01*
X9445701Y6247442D02*
Y6267442D01*
X9093360Y6179820D02*
X9113360D01*
X9103360Y6169820D02*
Y6189820D01*
X10365900Y5171440D02*
X10385900D01*
X10375900Y5161440D02*
Y5181440D01*
X9746140Y5171440D02*
X9766140D01*
X9756140Y5161440D02*
Y5181440D01*
X6581300Y6515100D02*
X6601300D01*
X6591300Y6505100D02*
Y6525100D01*
X9052720Y7360920D02*
X9072720D01*
X9062720Y7350920D02*
Y7370920D01*
X9746140Y8948420D02*
X9766140D01*
X9756140Y8938420D02*
Y8958420D01*
X12829700Y10350500D02*
X12849699D01*
X12839700Y10340500D02*
Y10360500D01*
X9144160Y8773160D02*
X9164160D01*
X9154160Y8763160D02*
Y8783160D01*
X13340240Y9773920D02*
X13360240D01*
X13350240Y9763920D02*
Y9783920D01*
X10561480Y9204960D02*
X10581480D01*
X10571480Y9194960D02*
Y9214960D01*
X9763920Y6357620D02*
X9783920D01*
X9773920Y6347620D02*
Y6367620D01*
X6334920Y6687972D02*
X6354920D01*
X6344920Y6677972D02*
Y6697972D01*
X7871417Y10495077D02*
X7891417D01*
X7881417Y10485077D02*
Y10505077D01*
X6708300Y5100320D02*
X6728300D01*
X6718300Y5090320D02*
Y5110320D01*
X11300620Y9271000D02*
X11320620D01*
X11310620Y9261000D02*
Y9281000D01*
X8786020Y10096500D02*
X8806020D01*
X8796020Y10086500D02*
Y10106500D01*
X12278520Y4323080D02*
X12298520D01*
X12288520Y4313080D02*
Y4333080D01*
X12550300Y9442450D02*
X12570300D01*
X12560300Y9432450D02*
Y9452450D01*
X7119780Y8699500D02*
X7139780D01*
X7129780Y8689500D02*
Y8709500D01*
X10997090Y8394700D02*
X11017090D01*
X11007090Y8384700D02*
Y8404700D01*
X7980840Y8940800D02*
X8000840D01*
X7990840Y8930800D02*
Y8950800D01*
X11991500Y8380730D02*
X12011500D01*
X12001500Y8370730D02*
Y8390730D01*
X12786520Y3467100D02*
X12806520D01*
X12796520Y3457100D02*
Y3477100D01*
X8895240Y10165080D02*
X8915240D01*
X8905240Y10155080D02*
Y10175080D01*
X9485704Y6657340D02*
X9505704D01*
X9495704Y6647340D02*
Y6667340D01*
X9831230Y6657340D02*
X9851230D01*
X9841230Y6647340D02*
Y6667340D01*
X11281570Y5207000D02*
X11301570D01*
X11291570Y5197000D02*
Y5217000D01*
X11209180Y10276840D02*
X11229180D01*
X11219180Y10266840D02*
Y10286840D01*
X11112660Y9606280D02*
X11132660D01*
X11122660Y9596280D02*
Y9616280D01*
X12042300Y10043160D02*
X12062300D01*
X12052300Y10033160D02*
Y10053160D01*
X10873900Y4137660D02*
X10893900D01*
X10883900Y4127660D02*
Y4147660D01*
X11912760Y6766560D02*
X11932760D01*
X11922760Y6756560D02*
Y6776560D01*
X10304940Y5006340D02*
X10324940D01*
X10314940Y4996340D02*
Y5016340D01*
X12293760Y10655300D02*
X12313760D01*
X12303760Y10645300D02*
Y10665300D01*
X9644540Y9245600D02*
X9664540D01*
X9654540Y9235600D02*
Y9255600D01*
X9888380Y9786620D02*
X9908380D01*
X9898380Y9776620D02*
Y9796620D01*
X8669180Y10591800D02*
X8689180D01*
X8679180Y10581800D02*
Y10601800D01*
X9157815Y9969500D02*
X9177815D01*
X9167815Y9959500D02*
Y9979500D01*
X7761201Y9573260D02*
X7781201D01*
X7771201Y9563260D02*
Y9583260D01*
X7348380Y9712960D02*
X7368380D01*
X7358380Y9702960D02*
Y9722960D01*
X7902618Y10319502D02*
X7922618D01*
X7912618Y10309502D02*
Y10329502D01*
X11412380Y3746500D02*
X11432380D01*
X11422380Y3736500D02*
Y3756500D01*
X7571900Y8293100D02*
X7591900D01*
X7581900Y8283100D02*
Y8303100D01*
X10307480Y8293100D02*
X10327480D01*
X10317480Y8283100D02*
Y8303100D01*
X11752740Y5360599D02*
X11772740D01*
X11762740Y5350599D02*
Y5370599D01*
X11752740Y4824730D02*
X11772740D01*
X11762740Y4814730D02*
Y4834730D01*
X7767099Y8191500D02*
X7787099D01*
X7777099Y8181500D02*
Y8201500D01*
X9146700Y8191500D02*
X9166700D01*
X9156700Y8181500D02*
Y8201500D01*
X12067700Y4699000D02*
X12087700D01*
X12077700Y4689000D02*
Y4709000D01*
X12017703Y4623999D02*
X12037703D01*
X12027703Y4613999D02*
Y4633999D01*
X12117702Y4623999D02*
X12137702D01*
X12127702Y4613999D02*
Y4633999D01*
X12117702Y4774001D02*
X12137702D01*
X12127702Y4764001D02*
Y4784001D01*
X12017703Y4774001D02*
X12037703D01*
X12027703Y4764001D02*
Y4784001D01*
%TF.MD5,7077baaf165bfe9663e70517575b630b*%
M02*
