%TF.GenerationSoftware,Altium Limited,Altium Designer,24.1.2 (44)*%
G04 Layer_Color=0*
%FSLAX45Y45*%
%MOMM*%
%TF.SameCoordinates,E01E6690-4C2E-4FB1-AE08-5A5A66155338*%
%TF.FilePolarity,Positive*%
%TF.FileFunction,Other,Top_Component_Center*%
%TF.Part,Single*%
G01*
G75*
%TA.AperFunction,NonConductor*%
%ADD50C,0.10000*%
D50*
X7292411Y6160699D02*
X7392411D01*
X7342414Y6110702D02*
Y6210701D01*
X8954303Y12065000D02*
X9054302D01*
X9004300Y12015003D02*
Y12115002D01*
X7951003Y12065000D02*
X8051002D01*
X8001000Y12015003D02*
Y12115002D01*
X7938303Y11404600D02*
X8038302D01*
X7988300Y11354603D02*
Y11454602D01*
X8954303Y11430000D02*
X9054302D01*
X9004300Y11380003D02*
Y11480002D01*
X11113303Y11426302D02*
X11213302D01*
X11163300Y11376299D02*
Y11476299D01*
X11532403Y11430000D02*
X11632402D01*
X11582400Y11380003D02*
Y11480002D01*
X13323103Y11391900D02*
X13423102D01*
X13373100Y11341903D02*
Y11441902D01*
X13729503Y11379200D02*
X13829501D01*
X13779500Y11329203D02*
Y11429202D01*
X13742203Y12065000D02*
X13842203D01*
X13792200Y12015003D02*
Y12115002D01*
X12916702Y12062201D02*
X13016702D01*
X12966701Y12012198D02*
Y12112198D01*
X13310403Y12067799D02*
X13410402D01*
X13360400Y12017802D02*
Y12117802D01*
X12904002Y11391900D02*
X13004002D01*
X12953999Y11341903D02*
Y11441902D01*
X7557303Y11395598D02*
X7657302D01*
X7607300Y11345601D02*
Y11445601D01*
X7544603Y12052300D02*
X7644602D01*
X7594600Y12002303D02*
Y12102302D01*
X12027703Y4102100D02*
X12127702D01*
X12077700Y4052103D02*
Y4152102D01*
X7921798Y7869702D02*
X8021798D01*
X7971800Y7819700D02*
Y7919700D01*
X11519703Y12067799D02*
X11619702D01*
X11569700Y12017802D02*
Y12117802D01*
X11113303Y12067799D02*
X11213302D01*
X11163300Y12017802D02*
Y12117802D01*
X7797800Y4763303D02*
Y4863302D01*
X7747803Y4813300D02*
X7847802D01*
X6896100Y11303803D02*
Y11403802D01*
X6846103Y11353800D02*
X6946102D01*
X8801100Y4788703D02*
Y4888702D01*
X8751103Y4838700D02*
X8851102D01*
X6718300Y4750603D02*
Y4850602D01*
X6668303Y4800600D02*
X6768302D01*
X5626100Y4729099D02*
Y4829099D01*
X5576103Y4779101D02*
X5676102D01*
X8039100Y10237003D02*
Y10337002D01*
X7989103Y10287000D02*
X8089102D01*
X11405403Y4658700D02*
X11505402D01*
X11455400Y4608698D02*
Y4708698D01*
X12566848Y4674403D02*
Y4774402D01*
X12516846Y4724400D02*
X12616845D01*
X7925603Y8623300D02*
X8025602D01*
X7975600Y8573303D02*
Y8673302D01*
%TF.MD5,9546ddfc934070ea6448189567629897*%
M02*
