%TF.GenerationSoftware,Altium Limited,Altium Designer,24.1.2 (44)*%
G04 Layer_Color=16711935*
%FSLAX45Y45*%
%MOMM*%
%TF.SameCoordinates,E01E6690-4C2E-4FB1-AE08-5A5A66155338*%
%TF.FilePolarity,Negative*%
%TF.FileFunction,Soldermask,Bot*%
%TF.Part,Single*%
G01*
G75*
%TA.AperFunction,ViaPad*%
%ADD48C,0.50000*%
%TA.AperFunction,ComponentPad*%
%ADD67C,1.72720*%
%ADD68C,1.70320*%
%ADD69R,1.70320X1.70320*%
%ADD70C,0.20320*%
%ADD71C,2.20320*%
%ADD72C,2.10320*%
%ADD73R,1.70320X1.70320*%
%TA.AperFunction,ViaPad*%
%ADD74C,0.50320*%
%ADD75C,0.70320*%
D48*
X7469911Y6160699D02*
D03*
X7214916D02*
D03*
X7342414Y6238199D02*
D03*
Y6083198D02*
D03*
D67*
X10134590Y3581390D02*
D03*
X10388600Y3581400D02*
D03*
X10642600D02*
D03*
X10896600D02*
D03*
X11150600D02*
D03*
X11404600D02*
D03*
X11658590Y3581390D02*
D03*
X11912600Y3581400D02*
D03*
X12166600D02*
D03*
X12420600D02*
D03*
Y3327400D02*
D03*
X12166590Y3327390D02*
D03*
X11912600Y3327400D02*
D03*
X11658600D02*
D03*
X11404600D02*
D03*
X11150600D02*
D03*
X10896600D02*
D03*
X10642600D02*
D03*
X10388600D02*
D03*
X10134600D02*
D03*
D68*
X6540500Y3581400D02*
D03*
X6794500D02*
D03*
X7048500D02*
D03*
X12458700Y10185400D02*
D03*
X12712700D02*
D03*
X12966701D02*
D03*
X13220700D02*
D03*
X13474699D02*
D03*
X13728700D02*
D03*
X13982700D02*
D03*
X12458700Y10947400D02*
D03*
X12712700D02*
D03*
X12966701D02*
D03*
X13220700D02*
D03*
X13474699D02*
D03*
X13728700D02*
D03*
X5181600Y10185400D02*
D03*
X5435600D02*
D03*
X5689600D02*
D03*
X5943600D02*
D03*
X6197600D02*
D03*
X6451600D02*
D03*
X6705600D02*
D03*
X5181600Y10947400D02*
D03*
X5435600D02*
D03*
X5689600D02*
D03*
X5943600D02*
D03*
X6197600D02*
D03*
X6451600D02*
D03*
D69*
X7302500Y3581400D02*
D03*
D70*
X5168900Y7353300D02*
D03*
X5169809Y9129212D02*
D03*
X14046201Y9220200D02*
D03*
X14045291Y7444288D02*
D03*
D71*
X6946900Y9131300D02*
D03*
Y8877300D02*
D03*
Y8623300D02*
D03*
Y8369300D02*
D03*
Y8115300D02*
D03*
Y7861300D02*
D03*
Y7607300D02*
D03*
Y7353300D02*
D03*
X12268200Y7442200D02*
D03*
Y7696200D02*
D03*
Y7950200D02*
D03*
Y8204200D02*
D03*
Y8458200D02*
D03*
Y8712200D02*
D03*
Y8966200D02*
D03*
Y9220200D02*
D03*
D72*
X10464800Y10541000D02*
D03*
X10210800D02*
D03*
X9956800D02*
D03*
X9702800D02*
D03*
X9448800D02*
D03*
Y10287000D02*
D03*
X9702800D02*
D03*
X9956800D02*
D03*
X10210810Y10287010D02*
D03*
X10464800Y10287000D02*
D03*
D73*
X13982700Y10947400D02*
D03*
X6705600D02*
D03*
D74*
X7772400Y5753100D02*
D03*
X7734300Y6299200D02*
D03*
X7453581Y6413500D02*
D03*
X7391400D02*
D03*
X8092120Y6098540D02*
D03*
X6984647Y5841647D02*
D03*
X7175500Y5791200D02*
D03*
X7276358Y5743046D02*
D03*
X7321095Y5948029D02*
D03*
X7366662Y5831656D02*
D03*
X7467600Y5803900D02*
D03*
X6972300Y6050600D02*
D03*
X6819900D02*
D03*
X6896100D02*
D03*
X6451600Y6096000D02*
D03*
X6959600Y5930900D02*
D03*
X7175500Y5867400D02*
D03*
X7119620Y5946140D02*
D03*
X7048500Y5943600D02*
D03*
X6870700D02*
D03*
X7167413Y6504300D02*
D03*
X6565900Y6388100D02*
D03*
X6807200Y6273800D02*
D03*
X6218240Y6527800D02*
D03*
X6928721Y6299199D02*
D03*
X7112000Y6198870D02*
D03*
X7823200Y5854700D02*
D03*
X9456420Y8773160D02*
D03*
X10395702Y9029182D02*
D03*
X6761952Y7051512D02*
D03*
X8763000Y7284400D02*
D03*
X8614542Y6230620D02*
D03*
X8046720Y6035040D02*
D03*
X9195704Y6764020D02*
D03*
X8740140Y6548120D02*
D03*
X7548880Y10866120D02*
D03*
X7564120Y6149340D02*
D03*
X7791856Y6822440D02*
D03*
X6861653D02*
D03*
X6908800Y6913880D02*
D03*
X7749540D02*
D03*
X9032474Y10096500D02*
D03*
X7430882Y10821782D02*
D03*
X11400902Y11176000D02*
D03*
X10375900Y5207000D02*
D03*
X9339580Y6337300D02*
D03*
X7236460Y5604510D02*
D03*
X7665720Y6080760D02*
D03*
X9445701Y6257442D02*
D03*
X9103360Y6179820D02*
D03*
X10375900Y5171440D02*
D03*
X9756140D02*
D03*
X6591300Y6515100D02*
D03*
X9062720Y7360920D02*
D03*
X9756140Y8948420D02*
D03*
X12839700Y10350500D02*
D03*
X9154160Y8773160D02*
D03*
X13350240Y9773920D02*
D03*
X10571480Y9204960D02*
D03*
X9773920Y6357620D02*
D03*
X6344920Y6687972D02*
D03*
X7881417Y10495077D02*
D03*
X6718300Y5100320D02*
D03*
X11310620Y9271000D02*
D03*
X8796020Y10096500D02*
D03*
X12288520Y4323080D02*
D03*
X12560300Y9442450D02*
D03*
X7129780Y8699500D02*
D03*
X11007090Y8394700D02*
D03*
X7990840Y8940800D02*
D03*
X12001500Y8380730D02*
D03*
X12796520Y3467100D02*
D03*
X8905240Y10165080D02*
D03*
X9495704Y6657340D02*
D03*
X9841230D02*
D03*
X11291570Y5207000D02*
D03*
X11219180Y10276840D02*
D03*
X11122660Y9606280D02*
D03*
X12052300Y10043160D02*
D03*
X10883900Y4137660D02*
D03*
X11922760Y6766560D02*
D03*
X10314940Y5006340D02*
D03*
X12303760Y10655300D02*
D03*
X9654540Y9245600D02*
D03*
X9898380Y9786620D02*
D03*
X8679180Y10591800D02*
D03*
X9167815Y9969500D02*
D03*
X7771201Y9573260D02*
D03*
X7358380Y9712960D02*
D03*
X7912618Y10319502D02*
D03*
X11422380Y3746500D02*
D03*
X7581900Y8293100D02*
D03*
X10317480D02*
D03*
X11762740Y5360599D02*
D03*
Y4824730D02*
D03*
X7777099Y8191500D02*
D03*
X9156700D02*
D03*
D75*
X12077700Y4699000D02*
D03*
X12027703Y4623999D02*
D03*
X12127702D02*
D03*
Y4774001D02*
D03*
X12027703D02*
D03*
%TF.MD5,978e8f29faedeb5055a70e198fd28413*%
M02*
