M48
;Layer_Color=9474304
;FILE_FORMAT=4:4
METRIC,LZ
;TYPE=PLATED
T01F00S00C0.2000
T02F00S00C0.7620
T03F00S00C0.9000
T04F00S00C1.3000
T05F00S00C2.5400
%
T01
X01142238Y0037465
X01279652Y0034671
X01228852Y00432308
X0121277Y004624
X0120277
X0120777Y004699
X0120277Y004774
X0121277
X01192276Y00676656
X01176274Y0053606
Y00482473
X01129157Y005207
X0103759
Y00517144
X01031494Y00500634
X00975614Y00517144
X00977392Y00635762
X00984123Y00665734
X0094957
X0091957Y00676402
X00933958Y0063373
X0094457Y00625744
X00910336Y00617982
X00861454Y00623062
X00874014Y00654812
X008763Y0072844
X00906272Y00736092
X00809212Y00609854
X00804672Y00603504
X0108839Y00413766
X0077724Y0057531
X0078232Y0058547
X00766572Y00608076
X00756412Y00614934
X00746991Y0061607
X00734241Y0062382
Y0060832
X0073211Y00594803
X00736666Y00583166
X0074676Y0058039
X00727636Y00574305
X0071755Y0057912
Y0058674
X00711962Y00594614
X0070485Y0059436
X0069596Y0059309
X0068707Y0059436
X0068961Y0060506
X0069723
X0068199
X0068072Y0062738
X00692872Y0062992
X007112Y00619887
X00721492Y0061607
X00716741Y0065043
X0073914Y0064135
X00745358
X0077343Y0062992
X00779186Y00682244
X00774954Y00691388
X0069088
X00686165Y00682244
X00676195Y00705151
X0065913Y0065151
X0065659Y0063881
X0064516Y006096
X00621824Y0065278
X00634492Y00668797
X00698465Y00584165
X00723646Y00560451
X0067183Y00510032
X00712978Y0086995
X0075819Y0082931
X0077771Y0081915
X0077712Y00957326
X00735838Y00971296
X00791262Y0103195
X00788142Y01049508
X00754888Y01086612
X00743088Y01082178
X00867918Y0105918
X00879602Y0100965
X00890524Y01016508
X00903247Y0100965
X00916781Y0099695
X00989838Y00978662
X00965454Y0092456
X00975614Y00894842
X00945642Y00877316
X00915416
X0091567Y0081915
X01031748Y0082931
X01100709Y0083947
X01131062Y009271
X01112266Y00960628
X01121918Y01027684
X0114009Y011176
X01057148Y00920496
X0103957Y00902918
X00799084Y0089408
X0120015Y00838073
X0125603Y00944245
X0120523Y01004316
X01230376Y0106553
X0128397Y0103505
X01335024Y00977392
T02
X0101346Y0033274
X01013459Y00358139
X0103886Y0035814
X0106426
X0108966
X0111506
X0114046
X01165859Y00358139
X0116586Y0033274
X0114046
X0111506
X0108966
X0106426
X0103886
X0119126
Y0035814
X0121666
X0124206
Y0033274
X01216659Y00332739
T03
X0065405Y0035814
X0067945
X0070485
X0073025
X0067056Y0101854
X0064516
X0061976
X0059436
X0056896
X0054356
X0051816
Y0109474
X0054356
X0056896
X0059436
X0061976
X0064516
X0067056
X0124587
X0127127
X0129667
X0132207
X0134747
X0137287
X0139827
Y0101854
X0137287
X0134747
X0132207
X0129667
X0127127
X0124587
T04
X0122682Y0074422
Y0076962
X0069469Y0076073
Y0078613
Y0073533
Y0081153
Y0083693
Y0086233
Y0088773
Y0091313
X0094488Y010287
Y010541
X0097028
X0099568
X0102108
X0104648
Y010287
X01021081Y01028701
X0099568Y010287
X0097028
X0122682Y0092202
Y0089662
Y0087122
Y0084582
Y0082042
Y0079502
T05
X01404529Y00744429
X0051689Y0073533
X00516981Y00912921
X0140462Y0092202
M30
